<svg version="1.0" xmlns="http://www.w3.org/2000/svg" role="img"
 width="32.88" height="31"  viewBox="0 0 328.000000 310.000000"
 preserveAspectRatio="xMidYMid meet" style="background-color: white;">
<title>Icon: lean.jsx</title>
<g transform="translate(0.000000,310.000000) scale(0.100000,-0.100000)"
fill="#000000" stroke="none">
<path d="M522 1568 l3 -1093 1155 0 1155 0 3 1093 2 1092 -1160 0 -1160 0 2
-1092z m2228 -3 l0 -1005 -1070 0 -1070 0 0 1005 0 1005 1070 0 1070 0 0
-1005z"/>
<path d="M1020 1550 l0 -700 420 0 420 0 0 110 0 110 -300 0 -300 0 0 590 0
590 -120 0 -120 0 0 -700z"/>
<path d="M1634 2092 c-50 -33 -28 -111 32 -112 46 0 72 71 38 104 -16 17 -51
21 -70 8z"/>
<path d="M1617 1903 c-4 -3 -7 -120 -7 -258 0 -284 1 -279 -71 -273 -40 3 -43
1 -56 -29 -12 -31 -12 -33 17 -48 59 -30 129 -15 180 40 l25 27 3 274 3 274
-44 0 c-24 0 -47 -3 -50 -7z"/>
<path d="M1858 1890 c-63 -34 -86 -107 -53 -170 17 -32 43 -49 122 -74 89 -29
126 -74 88 -106 -25 -20 -113 -14 -167 13 l-49 25 -17 -34 c-15 -32 -15 -35 4
-49 71 -53 224 -60 287 -12 43 33 60 81 46 132 -14 50 -49 78 -130 104 -66 21
-109 49 -109 70 0 40 89 54 157 26 47 -20 47 -20 66 19 l16 34 -37 18 c-56 28
-177 30 -224 4z"/>
<path d="M2140 1905 c0 -3 32 -53 70 -110 39 -57 70 -107 70 -111 0 -3 -34
-54 -75 -114 -41 -60 -75 -111 -75 -114 0 -3 24 -6 53 -6 l52 1 54 79 c30 44
57 80 60 80 3 0 30 -36 59 -80 l52 -80 56 0 c41 0 53 3 48 13 -4 6 -39 58 -77
115 -37 57 -66 110 -63 118 3 7 32 53 64 101 32 49 62 94 66 101 5 9 -6 12
-47 12 l-55 0 -47 -75 c-25 -41 -50 -75 -54 -75 -4 0 -29 34 -55 75 l-48 75
-54 0 c-30 0 -54 -2 -54 -5z"/>
</g>
</svg>
