<?xml version="1.0" encoding="UTF-8" standalone="no"?>
<!-- Created with Inkscape (http://www.inkscape.org/) -->

<svg
   width="297mm"
   height="210mm"
   viewBox="0 0 297 210"
   version="1.1"
   id="svg1"
   xml:space="preserve"
   sodipodi:docname="servers.svg"
   inkscape:version="1.3 (0e150ed, 2023-07-21)"
   inkscape:export-filename="servers.svg"
   inkscape:export-xdpi="96"
   inkscape:export-ydpi="96"
   xmlns:inkscape="http://www.inkscape.org/namespaces/inkscape"
   xmlns:sodipodi="http://sodipodi.sourceforge.net/DTD/sodipodi-0.dtd"
   xmlns:xlink="http://www.w3.org/1999/xlink"
   xmlns="http://www.w3.org/2000/svg"
   xmlns:svg="http://www.w3.org/2000/svg"><sodipodi:namedview
     id="namedview1"
     pagecolor="#ffffff"
     bordercolor="#000000"
     borderopacity="0.25"
     inkscape:showpageshadow="false"
     inkscape:pageopacity="0.0"
     inkscape:pagecheckerboard="0"
     inkscape:deskcolor="#d1d1d1"
     inkscape:document-units="mm"
     inkscape:zoom="1.5540715"
     inkscape:cx="3069.6785"
     inkscape:cy="313.69213"
     inkscape:window-width="1512"
     inkscape:window-height="846"
     inkscape:window-x="0"
     inkscape:window-y="38"
     inkscape:window-maximized="1"
     inkscape:current-layer="layer3"
     showguides="true"
     showgrid="false"
     showborder="false"
     borderlayer="false"><inkscape:grid
       id="grid53"
       units="mm"
       originx="-2320.6299"
       originy="0"
       spacingx="1"
       spacingy="0.99999998"
       empcolor="#0099e5"
       empopacity="0.30196078"
       color="#0099e5"
       opacity="0.14901961"
       empspacing="5"
       dotted="false"
       gridanglex="30"
       gridanglez="30"
       visible="false" /><inkscape:page
       x="0"
       y="0"
       width="297"
       height="210"
       id="page87"
       inkscape:export-filename="bundle.svg"
       inkscape:export-xdpi="96"
       inkscape:export-ydpi="96"
       margin="0"
       bleed="0" /></sodipodi:namedview><defs
     id="defs1"><linearGradient
       id="linearGradient154"
       inkscape:collect="always"><stop
         style="stop-color:#616161;stop-opacity:1;"
         offset="0.90836024"
         id="stop154" /><stop
         style="stop-color:#e2e2e2;stop-opacity:1;"
         offset="1"
         id="stop155" /></linearGradient><inkscape:path-effect
       effect="fillet_chamfer"
       id="path-effect149"
       is_visible="true"
       lpeversion="1"
       nodesatellites_param="F,0,0,1,0,0,0,1 @ F,0,0,1,0,0,0,1"
       radius="0"
       unit="px"
       method="auto"
       mode="F"
       chamfer_steps="1"
       flexible="false"
       use_knot_distance="true"
       apply_no_radius="true"
       apply_with_radius="true"
       only_selected="false"
       hide_knots="false" /><linearGradient
       id="linearGradient146"
       inkscape:collect="always"><stop
         style="stop-color:#676732;stop-opacity:1;"
         offset="0.94280052"
         id="stop146" /><stop
         style="stop-color:#ffffff;stop-opacity:1;"
         offset="1"
         id="stop147" /></linearGradient><linearGradient
       id="linearGradient131-1"
       inkscape:swatch="gradient"><stop
         style="stop-color:#fdfdfd;stop-opacity:1;"
         offset="0"
         id="stop133" /><stop
         style="stop-color:#999929;stop-opacity:1;"
         offset="0.59353352"
         id="stop132" /></linearGradient><linearGradient
       id="swatch125"
       inkscape:swatch="solid"><stop
         style="stop-color:#000000;stop-opacity:1;"
         offset="0"
         id="stop125" /></linearGradient><linearGradient
       id="swatch119"
       inkscape:swatch="solid"><stop
         style="stop-color:#616161;stop-opacity:1;"
         offset="0"
         id="stop119" /></linearGradient><inkscape:path-effect
       effect="fillet_chamfer"
       id="path-effect118"
       is_visible="true"
       lpeversion="1"
       nodesatellites_param="F,0,1,1,0,14.337469,0,1 @ F,0,0,1,0,14.337469,0,1 @ F,0,1,1,0,14.337469,0,1 @ F,0,1,1,0,14.337469,0,1"
       radius="0"
       unit="px"
       method="auto"
       mode="F"
       chamfer_steps="1"
       flexible="false"
       use_knot_distance="true"
       apply_no_radius="true"
       apply_with_radius="true"
       only_selected="false"
       hide_knots="false" /><inkscape:path-effect
       effect="fillet_chamfer"
       id="path-effect114"
       is_visible="true"
       lpeversion="1"
       nodesatellites_param="F,0,0,1,0,0,0,1 @ F,0,0,1,0,0,0,1 @ F,0,0,1,0,0,0,1 @ F,0,0,1,0,0,0,1 @ F,0,0,1,0,0,0,1 @ F,0,0,1,0,0.79016959,0,1 @ F,0,0,1,0,0,0,1 @ F,0,0,1,0,0,0,1 @ F,0,0,1,0,0.34091202,0,1 @ F,0,0,1,0,0,0,1 @ F,0,0,1,0,0.25552819,0,1 @ F,0,0,1,0,0.23374662,0,1 @ F,0,0,1,0,0,0,1 @ F,0,0,1,0,0,0,1 @ F,0,0,1,0,0,0,1 @ F,0,0,1,0,0,0,1"
       radius="0"
       unit="px"
       method="auto"
       mode="F"
       chamfer_steps="1"
       flexible="false"
       use_knot_distance="true"
       apply_no_radius="true"
       apply_with_radius="true"
       only_selected="false"
       hide_knots="false" /><inkscape:path-effect
       effect="fillet_chamfer"
       id="path-effect110"
       is_visible="true"
       lpeversion="1"
       nodesatellites_param="F,0,0,1,0,0,0,1 @ F,0,0,1,0,0.41297303,0,1 @ F,0,0,1,0,0.49060679,0,1 @ F,0,0,1,0,0.80931916,0,1 @ F,0,0,1,0,0.80931916,0,1 @ F,0,0,1,0,0,0,1 @ F,0,0,1,0,0,0,1 @ F,0,0,1,0,0,0,1"
       radius="0"
       unit="px"
       method="auto"
       mode="F"
       chamfer_steps="1"
       flexible="false"
       use_knot_distance="true"
       apply_no_radius="true"
       apply_with_radius="true"
       only_selected="false"
       hide_knots="false" /><inkscape:path-effect
       effect="fillet_chamfer"
       id="path-effect109"
       is_visible="true"
       lpeversion="1"
       nodesatellites_param="F,0,0,1,0,0.14345968,0,1 @ F,0,0,1,0,0,0,1 @ F,0,0,1,0,0,0,1 @ F,0,0,1,0,0,0,1 @ F,0,0,1,0,0,0,1 @ F,0,0,1,0,0,0,1 @ F,0,0,1,0,0,0,1 @ F,0,0,1,0,0,0,1 @ F,0,0,1,0,0.025651093,0,1"
       radius="0"
       unit="px"
       method="auto"
       mode="F"
       chamfer_steps="1"
       flexible="false"
       use_knot_distance="true"
       apply_no_radius="true"
       apply_with_radius="true"
       only_selected="false"
       hide_knots="false" /><inkscape:path-effect
       effect="fillet_chamfer"
       id="path-effect106"
       is_visible="true"
       lpeversion="1"
       nodesatellites_param="F,0,0,1,0,0,0,1 @ F,0,0,1,0,0,0,1 @ F,0,0,1,0,0,0,1 @ F,0,0,1,0,0,0,1 @ F,0,1,1,0,1.802064,0,1 @ F,0,0,1,0,1.802064,0,1"
       radius="0"
       unit="px"
       method="auto"
       mode="F"
       chamfer_steps="1"
       flexible="false"
       use_knot_distance="true"
       apply_no_radius="true"
       apply_with_radius="true"
       only_selected="false"
       hide_knots="false" /><inkscape:path-effect
       effect="fillet_chamfer"
       id="path-effect104"
       is_visible="true"
       lpeversion="1"
       nodesatellites_param="F,0,0,1,0,0,0,1 @ F,0,0,1,0,0,0,1 @ F,0,0,1,0,0,0,1 @ F,0,0,1,0,0.26195064,0,1"
       radius="0"
       unit="px"
       method="auto"
       mode="F"
       chamfer_steps="1"
       flexible="false"
       use_knot_distance="true"
       apply_no_radius="true"
       apply_with_radius="true"
       only_selected="false"
       hide_knots="false" /><inkscape:path-effect
       effect="fillet_chamfer"
       id="path-effect102"
       is_visible="true"
       lpeversion="1"
       nodesatellites_param="F,0,0,1,0,0,0,1 @ F,0,0,1,0,0,0,1 @ F,0,0,1,0,0.60914125,0,1 @ F,0,0,1,0,0,0,1"
       radius="0"
       unit="px"
       method="auto"
       mode="F"
       chamfer_steps="1"
       flexible="false"
       use_knot_distance="true"
       apply_no_radius="true"
       apply_with_radius="true"
       only_selected="false"
       hide_knots="false" /><inkscape:path-effect
       effect="fillet_chamfer"
       id="path-effect101"
       is_visible="true"
       lpeversion="1"
       nodesatellites_param="F,0,0,1,0,0,0,1 @ F,0,0,1,0,0,0,1 @ F,0,0,1,0,0,0,1 @ F,0,0,1,0,0.36031433,0,1"
       radius="0"
       unit="px"
       method="auto"
       mode="F"
       chamfer_steps="1"
       flexible="false"
       use_knot_distance="true"
       apply_no_radius="true"
       apply_with_radius="true"
       only_selected="false"
       hide_knots="false" /><inkscape:path-effect
       effect="fillet_chamfer"
       id="path-effect89"
       is_visible="true"
       lpeversion="1"
       nodesatellites_param="F,0,1,1,0,9.6326532,0,1 @ F,0,0,1,0,9.6326532,0,1 @ F,0,1,1,0,9.6326532,0,1 @ F,0,1,1,0,9.6326532,0,1"
       radius="0"
       unit="px"
       method="auto"
       mode="F"
       chamfer_steps="1"
       flexible="false"
       use_knot_distance="true"
       apply_no_radius="true"
       apply_with_radius="true"
       only_selected="false"
       hide_knots="false" /><linearGradient
       id="swatch18"
       inkscape:swatch="solid"><stop
         style="stop-color:#ff0000;stop-opacity:1;"
         offset="0"
         id="stop18" /></linearGradient><rect
       x="2870.7998"
       y="446.82346"
       width="247.1441"
       height="126.02713"
       id="rect88-5" /><filter
       inkscape:collect="always"
       style="color-interpolation-filters:sRGB"
       id="filter109"
       x="-0.001495479"
       y="-0.033403556"
       width="1.002991"
       height="1.0668071"><feGaussianBlur
         inkscape:collect="always"
         stdDeviation="0.10836927"
         id="feGaussianBlur109" /></filter><filter
       inkscape:collect="always"
       style="color-interpolation-filters:sRGB"
       id="filter112"
       x="-0.0028245282"
       y="-0.052529844"
       width="1.0056491"
       height="1.1050597"><feGaussianBlur
         inkscape:collect="always"
         stdDeviation="0.071568042"
         id="feGaussianBlur112" /></filter><inkscape:path-effect
       effect="fillet_chamfer"
       id="path-effect114-2"
       is_visible="true"
       lpeversion="1"
       nodesatellites_param="F,0,0,1,0,0,0,1 @ F,0,0,1,0,0,0,1 @ F,0,0,1,0,0,0,1 @ F,0,0,1,0,0,0,1 @ F,0,0,1,0,0,0,1 @ F,0,0,1,0,0.79016959,0,1 @ F,0,0,1,0,0,0,1 @ F,0,0,1,0,0,0,1 @ F,0,0,1,0,0.34091202,0,1 @ F,0,0,1,0,0,0,1 @ F,0,0,1,0,0.25552819,0,1 @ F,0,0,1,0,0,0,1 @ F,0,0,1,0,0.23374662,0,1 @ F,0,0,1,0,0,0,1 @ F,0,0,1,0,0,0,1 @ F,0,0,1,0,0,0,1 @ F,0,0,1,0,0,0,1"
       radius="0"
       unit="px"
       method="auto"
       mode="F"
       chamfer_steps="1"
       flexible="false"
       use_knot_distance="true"
       apply_no_radius="true"
       apply_with_radius="true"
       only_selected="false"
       hide_knots="false" /><inkscape:path-effect
       effect="fillet_chamfer"
       id="path-effect102-9"
       is_visible="true"
       lpeversion="1"
       nodesatellites_param="F,0,0,1,0,0,0,1 @ F,0,0,1,0,0,0,1 @ F,0,0,1,0,0.60914125,0,1 @ F,0,0,1,0,0,0,1"
       radius="0"
       unit="px"
       method="auto"
       mode="F"
       chamfer_steps="1"
       flexible="false"
       use_knot_distance="true"
       apply_no_radius="true"
       apply_with_radius="true"
       only_selected="false"
       hide_knots="false" /><inkscape:path-effect
       effect="fillet_chamfer"
       id="path-effect101-5"
       is_visible="true"
       lpeversion="1"
       nodesatellites_param="F,0,0,1,0,0,0,1 @ F,0,0,1,0,0,0,1 @ F,0,0,1,0,0,0,1 @ F,0,0,1,0,0.36031433,0,1"
       radius="0"
       unit="px"
       method="auto"
       mode="F"
       chamfer_steps="1"
       flexible="false"
       use_knot_distance="true"
       apply_no_radius="true"
       apply_with_radius="true"
       only_selected="false"
       hide_knots="false" /><filter
       inkscape:collect="always"
       style="color-interpolation-filters:sRGB"
       id="filter118"
       x="-0.02230889"
       y="-0.033172351"
       width="1.0446178"
       height="1.0663447"><feGaussianBlur
         inkscape:collect="always"
         stdDeviation="2.4232019"
         id="feGaussianBlur118" /></filter><linearGradient
       inkscape:collect="always"
       xlink:href="#linearGradient146"
       id="linearGradient147"
       x1="2994.5186"
       y1="532.67853"
       x2="2993.3076"
       y2="460.44287"
       gradientUnits="userSpaceOnUse"
       gradientTransform="translate(758.24644)" /><filter
       inkscape:collect="always"
       style="color-interpolation-filters:sRGB"
       id="filter112-7"
       x="-0.0028245282"
       y="-0.052529844"
       width="1.0056491"
       height="1.1050597"><feGaussianBlur
         inkscape:collect="always"
         stdDeviation="0.071568042"
         id="feGaussianBlur112-9" /></filter><inkscape:path-effect
       effect="fillet_chamfer"
       id="path-effect110-6"
       is_visible="true"
       lpeversion="1"
       nodesatellites_param="F,0,0,1,0,0,0,1 @ F,0,0,1,0,0.41297303,0,1 @ F,0,0,1,0,0.49060679,0,1 @ F,0,0,1,0,0.80931916,0,1 @ F,0,0,1,0,0.80931916,0,1 @ F,0,0,1,0,0,0,1 @ F,0,0,1,0,0,0,1 @ F,0,0,1,0,0,0,1"
       radius="0"
       unit="px"
       method="auto"
       mode="F"
       chamfer_steps="1"
       flexible="false"
       use_knot_distance="true"
       apply_no_radius="true"
       apply_with_radius="true"
       only_selected="false"
       hide_knots="false" /><filter
       inkscape:collect="always"
       style="color-interpolation-filters:sRGB"
       id="filter109-4"
       x="-0.001495479"
       y="-0.033403556"
       width="1.002991"
       height="1.0668071"><feGaussianBlur
         inkscape:collect="always"
         stdDeviation="0.10836927"
         id="feGaussianBlur109-5" /></filter><inkscape:path-effect
       effect="fillet_chamfer"
       id="path-effect109-2"
       is_visible="true"
       lpeversion="1"
       nodesatellites_param="F,0,0,1,0,0.14345968,0,1 @ F,0,0,1,0,0,0,1 @ F,0,0,1,0,0,0,1 @ F,0,0,1,0,0,0,1 @ F,0,0,1,0,0,0,1 @ F,0,0,1,0,0,0,1 @ F,0,0,1,0,0,0,1 @ F,0,0,1,0,0,0,1 @ F,0,0,1,0,0.025651093,0,1"
       radius="0"
       unit="px"
       method="auto"
       mode="F"
       chamfer_steps="1"
       flexible="false"
       use_knot_distance="true"
       apply_no_radius="true"
       apply_with_radius="true"
       only_selected="false"
       hide_knots="false" /><filter
       y="-0.019414686"
       height="1.0388292"
       inkscape:menu-tooltip="Darkens the edge with an inner blur and adds a flexible glow"
       inkscape:menu="Shadows and Glows"
       inkscape:label="Dark and Glow"
       style="color-interpolation-filters:sRGB"
       id="filter153"
       x="-0.077686576"
       width="1.1553731"><feGaussianBlur
         stdDeviation="0.5"
         result="result6"
         id="feGaussianBlur152" /><feComposite
         result="result8"
         in="SourceGraphic"
         operator="atop"
         in2="result6"
         id="feComposite152" /><feComposite
         result="result9"
         operator="over"
         in2="SourceAlpha"
         id="feComposite153" /><feColorMatrix
         values="0"
         result="result10"
         id="feColorMatrix153"
         type="saturate" /><feBlend
         in="result10"
         mode="normal"
         in2="result6"
         id="feBlend153" /></filter><linearGradient
       inkscape:collect="always"
       xlink:href="#linearGradient154"
       id="linearGradient155"
       x1="2994.4021"
       y1="530.89667"
       x2="2996.0376"
       y2="460.97577"
       gradientUnits="userSpaceOnUse"
       gradientTransform="translate(1770.4478)" /></defs><g
     inkscape:groupmode="layer"
     id="layer3"
     inkscape:label="js"
     style="display:inline"
     transform="translate(-613.99998)"><path
       id="rect118"
       style="opacity:0.624679;fill:#ffffff;stroke:#000000;stroke-width:0;stroke-linejoin:round;paint-order:fill markers stroke;filter:url(#filter118)"
       d="m 643.44684,20.326635 h 232.01418 a 14.337469,14.337469 45 0 1 14.33747,14.337469 V 181.3064 a 14.337469,14.337469 135 0 1 -14.33747,14.33747 H 643.44684 A 14.337469,14.337469 45 0 1 629.10937,181.3064 l 0,-146.642296 a 14.337469,14.337469 135 0 1 14.33747,-14.337469 z"
       inkscape:path-effect="#path-effect118"
       inkscape:original-d="M 629.10937,20.326635 H 889.79849 V 195.64387 H 629.10937 Z" /><path
       id="rect87"
       d="m 696.44643,29.447245 h 157.41819 a 9.6326532,9.6326532 45 0 1 9.63265,9.632653 V 179.17617 a 9.6326532,9.6326532 135 0 1 -9.63265,9.63265 H 696.44643 a 9.6326532,9.6326532 45 0 1 -9.63265,-9.63265 V 39.079898 a 9.6326532,9.6326532 135 0 1 9.63265,-9.632653 z"
       style="display:inline;opacity:1;fill:#ffff00;fill-opacity:1;stroke:#000000;stroke-width:5;stroke-linecap:round;stroke-linejoin:round;stroke-dasharray:none;stroke-opacity:1;paint-order:fill markers stroke"
       transform="translate(20.270422,-0.74948944)"
       inkscape:original-d="M 686.81378,29.447245 H 863.49727 V 188.80882 H 686.81378 Z"
       inkscape:path-effect="#path-effect89"
       inkscape:label="rect87" /><g
       id="text87"
       inkscape:label="JS"
       transform="matrix(0.80976309,0,0,0.9734736,-1603.9943,-353.27719)"><path
         style="color:#000000;-inkscape-font-specification:'Arial Bold';fill:#252525;fill-opacity:1;stroke-linecap:round;stroke-linejoin:round;-inkscape-stroke:none;paint-order:fill markers stroke"
         d="m 2967.4124,462.1779 h 13.8281 v 43.5 q 0,8.53125 -1.5,13.125 -2.0156,6 -7.3125,9.65625 -5.2969,3.60937 -13.9687,3.60937 -10.1719,0 -15.6563,-5.67187 -5.4844,-5.71875 -5.5312,-16.73438 l 13.0781,-1.5 q 0.2344,5.90625 1.7344,8.34375 2.25,3.70313 6.8437,3.70313 4.6406,0 6.5625,-2.625 1.9219,-2.67188 1.9219,-11.01563 z m 25.1381,46.35937 13.5,-1.3125 q 1.2188,6.79688 4.9219,9.98438 3.75,3.1875 10.0781,3.1875 6.7031,0 10.0781,-2.8125 3.4219,-2.85938 3.4219,-6.65625 0,-2.4375 -1.4531,-4.125 -1.4063,-1.73438 -4.9688,-3 -2.4375,-0.84375 -11.1093,-3 -11.1563,-2.76563 -15.6563,-6.79688 -6.3281,-5.67187 -6.3281,-13.82812 0,-5.25 2.9531,-9.79688 3,-4.59375 8.5781,-6.98437 5.625,-2.39063 13.5469,-2.39063 12.9375,0 19.4531,5.67188 6.5625,5.67187 6.8907,15.14062 l -13.875,0.60938 q -0.8907,-5.29688 -3.8438,-7.59375 -2.9062,-2.34375 -8.7656,-2.34375 -6.0469,0 -9.4688,2.48437 -2.2031,1.59375 -2.2031,4.26563 0,2.4375 2.0625,4.17187 2.625,2.20313 12.75,4.59375 10.125,2.39063 14.9531,4.96875 4.875,2.53125 7.5938,6.98438 2.7656,4.40625 2.7656,10.92187 0,5.90625 -3.2812,11.0625 -3.2813,5.15625 -9.2813,7.6875 -6,2.48438 -14.9531,2.48438 -13.0313,0 -20.0156,-6 -6.9844,-6.04688 -8.3438,-17.57813 z"
         id="path155" /><path
         style="color:#000000;-inkscape-font-specification:'Arial Bold';fill:url(#linearGradient147);stroke-linecap:round;stroke-linejoin:round;-inkscape-stroke:none;paint-order:fill markers stroke"
         d="m 3020.1133,460.44336 c -5.3379,0 -9.93,0.80457 -13.7676,2.43555 -3.8052,1.63079 -6.7653,4.03451 -8.8282,7.19336 a 0.56321131,0.56321131 0 0 0 0,0.002 c -2.0226,3.11428 -3.0429,6.49793 -3.0429,10.10351 0,5.58314 2.195,10.37726 6.5136,14.24805 3.1243,2.79886 8.4152,5.06905 15.8965,6.92383 5.7734,1.43556 9.4851,2.44069 11.0567,2.98437 6e-4,2.3e-4 0,-2.2e-4 0,0 6e-4,2.1e-4 0,0.002 0,0.002 2.3169,0.8239 3.8824,1.79564 4.7149,2.82226 a 0.56321131,0.56321131 0 0 0 0.01,0.0117 c 0.8813,1.0234 1.3184,2.24472 1.3184,3.75781 0,2.36207 -1.0336,4.39701 -3.2207,6.22461 -2.1092,1.75762 -5.3269,2.68164 -9.7168,2.68164 -4.1242,0 -7.332,-1.03092 -9.7129,-3.05468 -2.3402,-2.01597 -3.935,-5.20749 -4.7324,-9.6543 a 0.56321131,0.56321131 0 0 0 -0.6094,-0.46094 l -13.5,1.3125 a 0.56321131,0.56321131 0 0 0 -0.5039,0.62696 c 0.918,7.78749 3.7567,13.80213 8.5332,17.9375 a 0.56321131,0.56321131 0 0 0 0,0.002 c 4.7876,4.11281 11.6089,6.13476 20.3829,6.13476 6.0208,0 11.0765,-0.83321 15.1679,-2.52734 4.0923,-1.72644 7.2885,-4.37085 9.5371,-7.9043 2.2398,-3.51966 3.3692,-7.32345 3.3692,-11.36523 0,-4.4227 -0.942,-8.17566 -2.8516,-11.21875 -1.8644,-3.05177 -4.4776,-5.45473 -7.8047,-7.18359 -3.2992,-1.76173 -8.3152,-3.42193 -15.0898,-5.02149 -6.7229,-1.58735 -10.9639,-3.17254 -12.5176,-4.47656 -1.2755,-1.07261 -1.8613,-2.27408 -1.8613,-3.74024 0,-1.62646 0.623,-2.83369 1.9707,-3.80859 a 0.56321131,0.56321131 0 0 0 0,-0.002 c 2.1536,-1.56359 5.1845,-2.37696 9.1387,-2.37696 3.8311,0 6.6186,0.77431 8.4121,2.22071 a 0.56321131,0.56321131 0 0 0 0.01,0.006 c 1.8248,1.41929 3.0556,3.79818 3.6347,7.24218 a 0.56321131,0.56321131 0 0 0 0.5801,0.46875 l 13.875,-0.60937 a 0.56321131,0.56321131 0 0 0 0.5371,-0.58203 c -0.2231,-6.43745 -2.5966,-11.66553 -7.084,-15.54492 -4.4829,-3.90245 -11.1149,-5.81055 -19.8222,-5.81055 z m 0,1.125 c 8.5427,0 14.8795,1.87511 19.084,5.53516 4.1267,3.56667 6.2985,8.26908 6.6289,14.17968 l -12.8399,0.5625 c -0.6472,-3.33441 -1.896,-5.89065 -3.8945,-7.44922 v -0.002 c -2.0813,-1.67754 -5.137,-2.4668 -9.1171,-2.4668 -4.1073,0 -7.3902,0.84193 -9.7989,2.58985 -1.5898,1.15009 -2.4355,2.78662 -2.4355,4.72265 0,1.78384 0.7872,3.36364 2.2617,4.60352 1.9463,1.63348 6.2073,3.1108 12.9844,4.71094 6.7254,1.58795 11.6781,3.24025 14.8164,4.91601 a 0.56321131,0.56321131 0 0 0 0.01,0.004 c 3.1682,1.64499 5.6138,3.89586 7.3731,6.77734 a 0.56321131,0.56321131 0 0 0 0,0.006 c 1.7773,2.83164 2.6797,6.35899 2.6797,10.62305 0,3.83321 -1.0582,7.40443 -3.1934,10.75976 -2.1264,3.34155 -5.1177,5.82215 -9.0254,7.47071 -3.908,1.61749 -8.8193,2.4414 -14.7343,2.4414 -8.5999,0 -15.1217,-1.97724 -19.6465,-5.86328 v -0.002 c -4.4141,-3.82258 -7.0797,-9.36147 -8.0449,-16.64844 l 12.4375,-1.21094 c 0.8615,4.32951 2.4637,7.66751 4.9512,9.8086 a 0.56321131,0.56321131 0 0 0 0,0.002 c 2.6191,2.22624 6.1301,3.32031 10.4434,3.32031 4.5475,0 8.0466,-0.94902 10.4375,-2.9414 a 0.56321131,0.56321131 0 0 0 0,-0.002 c 2.3754,-1.98489 3.6231,-4.38746 3.6231,-7.08789 0,-1.73531 -0.5336,-3.26225 -1.5879,-4.48828 -1.0427,-1.28077 -2.7851,-2.30686 -5.209,-3.16797 -1.6799,-0.58152 -5.3723,-1.57695 -11.1582,-3.01562 -7.3927,-1.83263 -12.5406,-4.09405 -15.416,-6.66992 -4.1188,-3.6917 -6.1406,-8.11635 -6.1406,-13.40821 0,-3.39353 0.9475,-6.54071 2.8613,-9.48828 v -0.002 c 1.937,-2.965 4.6949,-5.21715 8.3262,-6.77344 3.6624,-1.55653 8.1016,-2.3457 13.3262,-2.3457 z m -52.7012,0.0469 a 0.56321131,0.56321131 0 0 0 -0.5625,0.5625 v 44.39063 c 0,5.51633 -0.6965,9.12657 -1.8144,10.68359 -1.1537,1.57568 -3.1199,2.39453 -6.1075,2.39453 -2.9111,0 -4.9496,-1.11019 -6.3613,-3.43359 a 0.56321131,0.56321131 0 0 0 0,-0.002 c -0.9005,-1.46324 -1.4979,-4.17731 -1.6524,-8.07032 a 0.56321131,0.56321131 0 0 0 -0.6269,-0.5371 l -13.0782,1.5 a 0.56321131,0.56321131 0 0 0 -0.498,0.56054 c 0.032,7.43679 1.9067,13.18076 5.6875,17.12305 a 0.56321131,0.56321131 0 0 0 0,0.002 c 3.7772,3.90632 9.1747,5.8418 16.0606,5.8418 5.8593,0 10.6357,-1.22026 14.2851,-3.70703 a 0.56321131,0.56321131 0 0 0 0,-0.002 c 3.6223,-2.50033 6.1453,-5.83102 7.5254,-9.93945 a 0.56321131,0.56321131 0 0 0 0,-0.004 c 1.0319,-3.16029 1.5273,-7.58029 1.5273,-13.30079 v -43.5 a 0.56321131,0.56321131 0 0 0 -0.5625,-0.5625 z m 0.5625,1.125 h 12.7031 v 42.9375 c 0,5.65449 -0.5046,9.98647 -1.4726,12.95118 -1.3077,3.88876 -3.6592,6.99375 -7.0977,9.36718 -3.4127,2.32413 -7.9473,3.50977 -13.6484,3.50977 -6.6766,0 -11.7166,-1.84383 -15.252,-5.5 -3.4436,-3.59196 -5.2223,-8.86106 -5.3379,-15.84375 l 11.9825,-1.375 c 0.1935,3.62366 0.7188,6.33164 1.7539,8.01367 1.5884,2.6125 4.1094,3.9707 7.3222,3.9707 3.1999,0 5.6087,-0.93115 7.0176,-2.85546 a 0.56321131,0.56321131 0 0 0 0,-0.004 c 1.4435,-2.00684 2.0273,-5.73802 2.0273,-11.34375 z"
         id="path156" /></g><rect
       style="display:inline;opacity:1;fill:#ffffff;fill-opacity:1;stroke:#000000;stroke-width:5;stroke-linecap:butt;stroke-linejoin:round;stroke-dasharray:none;stroke-opacity:1;paint-order:fill markers stroke"
       id="rect91"
       width="60"
       height="155"
       x="639.27045"
       y="29.250513"
       sodipodi:type="rect" /><path
       style="fill:#b3e3fe;fill-opacity:1;stroke:#000000;stroke-width:0;stroke-linecap:butt;stroke-linejoin:round;stroke-dasharray:none;stroke-opacity:1;paint-order:fill markers stroke"
       d="m 641.76674,112.48398 7.21871,0.002 -0.11396,0.70213 a 0.71494575,0.71494575 139.65042 0 1 -0.70673,0.6004 l -6.39861,-0.009 z"
       id="path101-8"
       sodipodi:nodetypes="ccccc"
       inkscape:path-effect="#path-effect102-9"
       inkscape:original-d="m 641.76674,112.48398 7.21871,0.002 -0.21155,1.3034 -7.00775,-0.01 z"
       transform="matrix(1,0,0,1.5121704,0.0145195,-27.594949)" /><path
       style="fill:#b3e3fe;fill-opacity:1;stroke:#000000;stroke-width:0;stroke-linecap:butt;stroke-linejoin:round;stroke-dasharray:none;stroke-opacity:1;paint-order:fill markers stroke"
       d="m 653.9799,127.49442 -12.24501,0.006 0.0139,1.69387 11.35756,0.004 a 0.4846669,0.4846669 143.39146 0 0 0.46423,-0.34488 z"
       id="path100-1"
       sodipodi:nodetypes="ccccc"
       inkscape:path-effect="#path-effect101"
       inkscape:original-d="m 653.9799,127.49442 -12.24501,0.006 0.0139,1.69387 11.71787,0.004 z" /><path
       style="fill:#b3e3fe;fill-opacity:1;stroke:#000000;stroke-width:0;stroke-linecap:butt;stroke-linejoin:round;stroke-dasharray:none;stroke-opacity:1;paint-order:fill markers stroke"
       d="m 653.9799,127.49442 -12.24501,0.006 0.0139,1.69387 11.35756,0.004 a 0.4846669,0.4846669 143.39146 0 0 0.46423,-0.34488 z"
       id="path100-1-6"
       sodipodi:nodetypes="ccccc"
       inkscape:path-effect="#path-effect101-5"
       inkscape:original-d="m 653.9799,127.49442 -12.24501,0.006 0.0139,1.69387 11.71787,0.004 z"
       transform="translate(0.0200895,-29.994423)" /><path
       style="opacity:1;fill:#b3e3fe;fill-opacity:1;stroke:#000000;stroke-width:0;stroke-linecap:butt;stroke-linejoin:round;stroke-dasharray:none;stroke-opacity:1;paint-order:fill markers stroke"
       d="m 656.53907,61.954816 6.26911,12.82764 -1.69908,-1.125056 -5.22017,-10.912252 z"
       id="path115"
       sodipodi:nodetypes="ccccc" /><path
       style="fill:#b3e3fe;fill-opacity:1;stroke:#000000;stroke-width:0;stroke-linecap:butt;stroke-linejoin:round;stroke-dasharray:none;stroke-opacity:1;paint-order:fill markers stroke"
       d="m 653.99294,157.50045 -12.25811,-4.5e-4 0.0139,1.69387 11.60705,-0.0252 a 0.32816798,0.32816798 141.27785 0 0 0.31945,-0.25613 z"
       id="path100-1-7"
       sodipodi:nodetypes="ccccc"
       inkscape:path-effect="#path-effect104"
       inkscape:original-d="m 653.99294,157.50045 -12.25811,-4.5e-4 0.0139,1.69387 11.869,-0.0258 z"
       inkscape:label="path100-1-7" /><text
       xml:space="preserve"
       transform="matrix(0.3468049,0,0,0.41593187,-369.20291,-146.56632)"
       id="text87-2"
       style="font-style:normal;font-variant:normal;font-weight:bold;font-stretch:normal;font-size:96px;line-height:1.2;font-family:Arial;-inkscape-font-specification:'Arial Bold';text-align:center;letter-spacing:0.06px;writing-mode:lr-tb;white-space:pre;shape-inside:url(#rect88-5);display:inline;fill:#ffff00;fill-opacity:1;stroke:url(#linearGradient155);stroke-width:2.63297;stroke-linecap:round;stroke-linejoin:round;stroke-dasharray:none;paint-order:fill markers stroke"
       inkscape:label="kb"><tspan
         x="2925.0139"
         y="530.89665"
         id="tspan3"><tspan
           style="fill:#000000"
           id="tspan1">KB</tspan></tspan></text><path
       id="path97"
       style="opacity:1;stroke:#a4a4a4;stroke-width:1;stroke-linejoin:round;paint-order:fill markers stroke;filter:url(#filter153)"
       d="m 669.20238,166.74964 -6.98875,0.15197 10.89265,8.58374 10.98899,-8.56587 -7.50303,-0.15197 m 0.50294,0 v 0 -78.844741 h -8.41137 v 78.844741 0" /><path
       style="opacity:1;fill:#ffffff;fill-opacity:1;stroke:#000000;stroke-width:5;stroke-linecap:butt;stroke-linejoin:round;stroke-dasharray:none;stroke-opacity:1;paint-order:fill markers stroke"
       d="m 638.99996,95.000002 h 15.00003"
       id="path92"
       inkscape:original-d="m 638.99996,95.000002 h 15.00003"
       inkscape:path-effect="#path-effect149" /><path
       style="opacity:1;fill:#ffffff;fill-opacity:1;stroke:#000000;stroke-width:4.99999;stroke-linecap:butt;stroke-linejoin:round;stroke-dasharray:none;stroke-opacity:1;paint-order:fill markers stroke"
       d="m 638.99996,110 h 10.00001"
       id="path93" /><path
       style="opacity:1;fill:#ffffff;fill-opacity:1;stroke:#000000;stroke-width:4.99999;stroke-linecap:butt;stroke-linejoin:round;stroke-dasharray:none;stroke-opacity:1;paint-order:fill markers stroke"
       d="m 638.99996,125 h 15.00003"
       id="path94" /><path
       style="opacity:1;fill:#ffffff;fill-opacity:1;stroke:#000000;stroke-width:4.99999;stroke-linecap:butt;stroke-linejoin:round;stroke-dasharray:none;stroke-opacity:1;paint-order:fill markers stroke"
       d="m 638.99996,140 h 10.00001"
       id="path95" /><path
       style="opacity:1;fill:#ffffff;fill-opacity:1;stroke:#000000;stroke-width:4.99999;stroke-linecap:butt;stroke-linejoin:round;stroke-dasharray:none;stroke-opacity:1;paint-order:fill markers stroke"
       d="m 638.99996,155 h 15.00003"
       id="path96" /><path
       style="opacity:1;fill:#e6e6e6;fill-opacity:1;stroke:#000000;stroke-width:0;stroke-linecap:butt;stroke-linejoin:round;stroke-dasharray:none;stroke-opacity:1;paint-order:fill markers stroke"
       d="m 641.74213,167.67888 0.13002,14.08112 54.87075,-0.0127 -0.0508,-14.97979 -2.44839,8.83583 a 2.3871997,2.3871997 142.53656 0 1 -2.28323,1.74968 l -46.75352,0.33847 a 2.1100315,2.1100315 40.084058 0 1 -2.09687,-1.76473 z"
       id="path99"
       sodipodi:nodetypes="ccccccc"
       inkscape:path-effect="#path-effect106"
       inkscape:original-d="m 641.74213,167.67888 0.13002,14.08112 54.87075,-0.0127 -0.0508,-14.97979 -2.9296,10.57246 -50.35756,0.36457 z" /><path
       style="opacity:1;fill:#b3e3fe;fill-opacity:1;stroke:#000000;stroke-width:0;stroke-linecap:butt;stroke-linejoin:round;stroke-dasharray:none;stroke-opacity:1;paint-order:fill markers stroke"
       d="m 648.01834,97.530072 -0.78016,-0.06643 -1.08488,-0.04185 -4.44567,-0.0053 0.007,1.673576 5.92362,-0.03419 a 3.5430523,3.5430523 12.241638 0 1 1.50738,0.327052 l 1.80456,0.834359 -0.0774,-0.450872 -0.0869,-0.302313 a 2.3682611,2.3682611 65.771346 0 0 -0.27695,-0.615422 l -0.10818,-0.170331 -0.0688,-0.08652 a 2.4155545,2.4155545 45.460423 0 0 -0.35646,-0.362243 l -0.22783,-0.187287 a 1.2295608,1.2295608 28.658059 0 0 -0.40301,-0.220256 l -0.23551,-0.07604 -0.12503,-0.04551 -0.2184,-0.0451 -0.26456,-0.06141 z"
       id="path100"
       sodipodi:nodetypes="ccccccccccccccccc"
       transform="translate(35.265662,-35.069985)"
       inkscape:path-effect="#path-effect114"
       inkscape:original-d="m 648.01834,97.530072 -0.78016,-0.06643 -1.08488,-0.04185 -4.44567,-0.0053 0.007,1.673576 6.71378,-0.03875 2.52178,1.165972 -0.0774,-0.450872 -0.18108,-0.629958 -0.29095,-0.458108 -0.2279,-0.286499 -0.60579,-0.497989 -0.45795,-0.147863 -0.12503,-0.04551 -0.2184,-0.0451 -0.26456,-0.06141 z" /><path
       style="fill:#b3e3fe;fill-opacity:1;stroke:#000000;stroke-width:0;stroke-linecap:butt;stroke-linejoin:round;stroke-dasharray:none;stroke-opacity:1;paint-order:fill markers stroke"
       d="m 647.11394,97.459012 -0.78016,-0.06643 -0.18048,0.02921 -4.44567,-0.0053 0.007,1.673576 5.05521,0.02952 a 4.0621426,4.0621426 11.342269 0 1 1.52097,0.305087 l 1.75498,0.721559 -0.0193,-0.470252 -0.0499,-0.312681 a 2.103146,2.103146 71.731123 0 0 -0.21098,-0.639115 l -0.10782,-0.20733 -0.10713,-0.163289 A 1.5112831,1.5112831 47.135395 0 0 649.2079,97.98422 l -0.14295,-0.109843 -0.13497,-0.07741 a 1.963552,1.963552 23.045586 0 0 -0.42717,-0.181723 l -0.22914,-0.06682 -0.23877,-0.0404 -0.22734,-0.02977 -0.27223,-0.01413 z"
       id="path100-14"
       sodipodi:nodetypes="cccccccccccccccccc"
       transform="translate(35.314452,-46.43503)"
       inkscape:path-effect="#path-effect114-2"
       inkscape:original-d="m 647.11394,97.459012 -0.78016,-0.06643 -0.18048,0.02921 -4.44567,-0.0053 0.007,1.673576 5.84537,0.03413 2.48579,1.022032 -0.0193,-0.470252 -0.10356,-0.649338 -0.26511,-0.509788 -0.2473,-0.37694 -0.34557,-0.265535 -0.33774,-0.193694 -0.45354,-0.132254 -0.23877,-0.0404 -0.22734,-0.02977 -0.27223,-0.01413 z" /><path
       style="opacity:1;fill:#b3e3fe;fill-opacity:1;stroke:#000000;stroke-width:0;stroke-linecap:butt;stroke-linejoin:round;stroke-dasharray:none;stroke-opacity:1;paint-order:fill markers stroke"
       d="m 641.76674,112.48398 7.21871,0.002 -0.11396,0.70213 a 0.71494575,0.71494575 139.65042 0 1 -0.70673,0.6004 l -6.39861,-0.009 z"
       id="path101"
       sodipodi:nodetypes="ccccc"
       inkscape:path-effect="#path-effect102"
       inkscape:original-d="m 641.76674,112.48398 7.21871,0.002 -0.21155,1.3034 -7.00775,-0.01 z"
       transform="matrix(1,0,0,1.5121704,0,-57.610962)" /><path
       style="opacity:1;fill:#e6e6e6;fill-opacity:1;stroke:#000000;stroke-width:0;stroke-linecap:butt;stroke-linejoin:round;stroke-dasharray:none;stroke-opacity:1;paint-order:fill markers stroke"
       d="m 641.66085,31.666248 54.94576,0.05083 0.0508,3.151378 -54.89493,-0.101658 z"
       id="path106"
       inkscape:label="shadow_small_top" /><path
       style="opacity:1;fill:#bbc510;fill-opacity:1;stroke:#000000;stroke-width:0;stroke-linecap:butt;stroke-linejoin:round;stroke-dasharray:none;stroke-opacity:1;paint-order:fill markers stroke"
       d="m 881.18311,50.434123 0.10102,-12.457025 c 0,0 -0.20201,-3.265763 -2.3904,-4.982811 -2.1884,-1.71705 -3.74814,-1.723861 -3.74814,-1.723861 l -0.80741,-0.07257 H 716.54365 c 0,0 -1.32448,0.10886 -1.95951,0.326583 -0.63502,0.217723 -0.81645,0.272153 -1.27005,0.535234 -0.4536,0.263083 -0.4536,0.108862 -1.09768,0.698529 -0.6441,0.589666 -0.69852,0.589666 -1.1612,1.233762 -0.46265,0.644097 -0.24492,-0.01815 -0.7076,1.097685 -0.46265,1.115827 -0.4445,1.079542 -0.58058,1.623849 -0.13607,0.544306 -0.19052,1.260977 -0.19052,1.260977 l -0.0106,8.484394 c 0,0 1.53596,-5.485186 4.62714,-6.848949 3.09121,-1.363763 7.92915,-1.248979 7.92915,-1.248979 l 147.22422,0.253255 c 0,0 5.88711,0.900973 6.98386,3.155414 1.09675,2.25444 4.85277,8.664515 4.85277,8.664515 z"
       id="path108"
       sodipodi:nodetypes="ccscccssssssccsccscc"
       inkscape:label="shadow_large_top" /><path
       style="display:inline;opacity:1;mix-blend-mode:normal;fill:#fefffb;fill-opacity:1;stroke:#000000;stroke-width:0;stroke-linecap:butt;stroke-linejoin:round;stroke-dasharray:none;stroke-opacity:1;paint-order:fill markers stroke;filter:url(#filter109)"
       d="m 885.14554,34.657959 c -0.54915,-0.696317 -3.53649,-4.419852 -5.64478,-5.739538 -2.25246,-1.409933 -11.22598,-0.919086 -11.22598,-0.919086 l -156.9013,0.196945 c 0,0 2.36336,-0.95191 3.93893,-1.181682 1.57557,-0.229772 159.78986,0.03282 159.78986,0.03282 0,0 3.24964,0.295421 4.5298,1.08321 0.55618,0.342262 1.9923,0.989535 3.16342,2.300598 1.43849,1.610372 2.38746,3.929818 2.48992,4.186333 0.005,0.01285 0.004,0.0337 -0.002,0.04655 -0.0275,0.05897 -0.0892,0.05607 -0.13826,-0.0061 z"
       id="path109"
       sodipodi:nodetypes="csccscsscc"
       inkscape:path-effect="#path-effect109"
       inkscape:original-d="m 885.23404,34.770886 c 0,0 -3.40341,-4.394079 -5.73328,-5.852465 -2.25246,-1.409933 -11.22598,-0.919086 -11.22598,-0.919086 l -156.9013,0.196945 c 0,0 2.36336,-0.95191 3.93893,-1.181682 1.57557,-0.229772 159.78986,0.03282 159.78986,0.03282 0,0 3.24964,0.295421 4.5298,1.08321 0.55618,0.342262 1.9923,0.989535 3.16342,2.300598 1.52447,1.706628 2.49915,4.209628 2.49915,4.209628 z"
       inkscape:label="light_large" /><path
       style="display:inline;opacity:0.339332;mix-blend-mode:normal;fill:#fefffb;fill-opacity:1;stroke:#000000;stroke-width:0;stroke-linecap:butt;stroke-linejoin:round;stroke-dasharray:none;stroke-opacity:1;paint-order:fill markers stroke;filter:url(#filter109-4)"
       d="m 885.14554,34.657959 c -0.54915,-0.696317 -3.53649,-4.419852 -5.64478,-5.739538 -2.25246,-1.409933 -11.22598,-0.919086 -11.22598,-0.919086 l -156.9013,0.196945 c 0,0 2.36336,-0.95191 3.93893,-1.181682 1.57557,-0.229772 159.78986,0.03282 159.78986,0.03282 0,0 3.24964,0.295421 4.5298,1.08321 0.55618,0.342262 1.9923,0.989535 3.16342,2.300598 1.43849,1.610372 2.38746,3.929818 2.48992,4.186333 0.005,0.01285 0.004,0.0337 -0.002,0.04655 -0.0275,0.05897 -0.0892,0.05607 -0.13826,-0.0061 z"
       id="path109-0"
       sodipodi:nodetypes="csccscsscc"
       inkscape:path-effect="#path-effect109-2"
       inkscape:original-d="m 885.23404,34.770886 c 0,0 -3.40341,-4.394079 -5.73328,-5.852465 -2.25246,-1.409933 -11.22598,-0.919086 -11.22598,-0.919086 l -156.9013,0.196945 c 0,0 2.36336,-0.95191 3.93893,-1.181682 1.57557,-0.229772 159.78986,0.03282 159.78986,0.03282 0,0 3.24964,0.295421 4.5298,1.08321 0.55618,0.342262 1.9923,0.989535 3.16342,2.300598 1.52447,1.706628 2.49915,4.209628 2.49915,4.209628 z"
       inkscape:label="light_large"
       transform="translate(-0.17798351,0.85641188)" /><path
       style="display:inline;opacity:1;mix-blend-mode:normal;fill:#fefffb;fill-opacity:1;stroke:#000000;stroke-width:0;stroke-linecap:butt;stroke-linejoin:round;stroke-dasharray:none;stroke-opacity:1;paint-order:fill markers stroke;filter:url(#filter112)"
       d="m 639.85713,27.655205 c 0,0 54.00443,-0.26989 59.26201,0.08825 0.22655,0.01543 0.53874,0.188577 0.65245,0.385367 0.349,0.603964 0.69587,1.709072 0.87808,2.338833 0.0753,0.260115 -0.0806,0.414101 -0.34185,0.342143 a 1.3745951,1.3745951 49.432127 0 1 -0.55539,-0.648724 l -0.735,-0.927199 a 1.6876669,1.6876669 25.975936 0 0 -1.31205,-0.639251 l -31.38761,-0.194987 -25.37663,-0.02836 -1.01977,-0.563915 z"
       id="path110"
       inkscape:original-d="m 639.85713,27.655205 c 0,0 59.19243,-0.295817 59.66952,0.142922 0.57554,0.529274 1.25416,3.141967 1.25416,3.141967 l -0.52563,-0.144793 -1.7405,-2.195645 -32.19691,-0.200015 -25.37663,-0.02836 -1.01977,-0.563915 z"
       inkscape:path-effect="#path-effect110"
       sodipodi:nodetypes="cscccsccc"
       inkscape:label="light_small" /><path
       style="display:inline;opacity:0.367609;mix-blend-mode:normal;fill:#fefffb;fill-opacity:1;stroke:#000000;stroke-width:0;stroke-linecap:butt;stroke-linejoin:round;stroke-dasharray:none;stroke-opacity:1;paint-order:fill markers stroke;filter:url(#filter112-7)"
       d="m 639.85713,27.655205 c 0,0 54.00443,-0.26989 59.26201,0.08825 0.22655,0.01543 0.53874,0.188577 0.65245,0.385367 0.349,0.603964 0.69587,1.709072 0.87808,2.338833 0.0753,0.260115 -0.0806,0.414101 -0.34185,0.342143 a 1.3745951,1.3745951 49.432127 0 1 -0.55539,-0.648724 l -0.735,-0.927199 a 1.6876669,1.6876669 25.975936 0 0 -1.31205,-0.639251 l -31.38761,-0.194987 -25.37663,-0.02836 -1.01977,-0.563915 z"
       id="path110-0"
       inkscape:original-d="m 639.85713,27.655205 c 0,0 59.19243,-0.295817 59.66952,0.142922 0.57554,0.529274 1.25416,3.141967 1.25416,3.141967 l -0.52563,-0.144793 -1.7405,-2.195645 -32.19691,-0.200015 -25.37663,-0.02836 -1.01977,-0.563915 z"
       inkscape:path-effect="#path-effect110-6"
       sodipodi:nodetypes="cscccsccc"
       inkscape:label="light_small"
       inkscape:transform-center-x="0.18231479"
       inkscape:transform-center-y="-1.1850396"
       transform="translate(-0.52916667,0.52916663)" /><path
       style="opacity:1;fill:#e0e500;fill-opacity:1;stroke:#000000;stroke-width:0;stroke-linecap:butt;stroke-linejoin:round;stroke-dasharray:none;stroke-opacity:1;paint-order:fill markers stroke"
       d="m 709.55694,171.62914 8.34064,7.61726 154.31088,-0.8643 9.01439,-6.96762 0.0644,7.4276 c 0,0 -0.45082,2.68339 -1.45976,3.84261 -1.00896,1.15922 -1.67444,1.9535 -3.67088,2.57604 -1.99644,0.62255 -1.26656,0.19321 -1.26656,0.19321 l -158.64983,0.11331 c 0,0 -2.31992,-0.28161 -3.43294,-1.18008 -1.11305,-0.89847 -1.74331,-1.48851 -2.19924,-2.29311 -0.45593,-0.80459 -0.87164,-1.87739 -0.9521,-2.70881 -0.0805,-0.83142 -0.0805,-3.86207 -0.0805,-3.86207 l -0.0185,-3.89404"
       id="path112"
       sodipodi:nodetypes="cccccssccssscc" /></g></svg>
