<svg version="1.0" xmlns="http://www.w3.org/2000/svg" max-width="100%" viewBox="0 0 884.000000 344.000000" 
    preserveAspectRatio="xMidYMid meet" role="img">
    <title>Logo image: lean.jsx</title>
<g transform="translate(0.000000,344.000000) scale(0.100000,-0.100000)"
fill="black" stroke="none">
<path d="M7115 2995 c-60 -59 -2 -161 80 -141 37 9 65 45 65 83 0 74 -93 111
-145 58z"/>
<path d="M792 1923 l3 -998 600 0 600 0 3 153 3 152 -436 0 -435 0 0 845 0
845 -170 0 -170 0 2 -997z"/>
<path d="M7544 2749 c-131 -17 -206 -103 -189 -217 5 -36 16 -56 48 -88 35
-34 59 -46 143 -72 118 -37 160 -67 149 -110 -12 -48 -29 -57 -113 -57 -68 0
-86 4 -145 33 -38 19 -70 32 -71 30 -2 -1 -14 -23 -26 -47 -22 -43 -22 -45 -4
-59 56 -42 130 -66 220 -70 111 -5 179 14 229 63 56 57 65 159 20 228 -24 37
-82 69 -182 102 -105 34 -135 57 -131 98 6 58 94 74 198 36 30 -11 62 -22 70
-25 18 -6 65 80 54 98 -23 36 -175 69 -270 57z"/>
<path d="M7100 2382 l0 -369 -23 -21 c-27 -26 -66 -28 -106 -7 l-29 14 -21
-49 c-12 -27 -21 -52 -21 -57 0 -14 37 -32 84 -43 96 -21 191 24 239 114 21
40 22 49 22 411 l0 370 -72 3 -73 3 0 -369z"/>
<path d="M7857 2737 c4 -7 50 -74 101 -150 51 -76 95 -144 98 -151 3 -8 -44
-86 -105 -174 -61 -88 -111 -163 -111 -167 0 -3 35 -5 77 -3 l78 3 82 119 82
118 78 -121 78 -121 83 0 82 0 -110 165 c-60 90 -110 169 -110 175 0 6 45 78
100 160 55 82 100 152 100 155 0 3 -34 5 -75 5 l-75 0 -72 -110 c-40 -60 -75
-110 -78 -110 -3 0 -38 50 -78 110 l-72 110 -81 0 c-62 0 -78 -3 -72 -13z"/>
<path d="M2628 2440 c-178 -32 -342 -126 -450 -256 -63 -76 -101 -151 -134
-259 -24 -81 -27 -105 -27 -240 0 -121 4 -165 21 -227 102 -375 433 -584 852
-538 190 21 349 87 468 196 l57 51 -52 59 c-28 32 -67 74 -86 93 l-36 33 -58
-45 c-216 -170 -529 -167 -705 6 -57 57 -112 150 -123 210 l-7 37 571 0 571 0
0 128 c-1 403 -160 655 -465 738 -69 19 -323 28 -397 14z m241 -260 c80 -14
170 -59 223 -113 50 -51 95 -144 104 -214 l7 -53 -431 0 -431 0 6 33 c10 51
41 126 72 171 100 144 259 207 450 176z"/>
<path d="M4080 2435 c-41 -8 -104 -24 -140 -36 -61 -20 -251 -110 -277 -131
-8 -7 7 -40 55 -123 l66 -114 40 25 c58 36 177 91 228 105 119 32 283 28 372
-11 103 -44 166 -141 166 -254 l0 -54 -292 -4 c-319 -5 -380 -14 -501 -74
-186 -90 -271 -282 -222 -493 43 -179 179 -305 375 -347 89 -19 261 -14 355
11 83 21 192 77 242 123 l42 39 3 -86 3 -86 160 0 160 0 0 545 c0 501 -1 550
-18 605 -55 177 -161 286 -335 343 -67 22 -97 25 -242 28 -112 2 -189 -1 -240
-11z m510 -918 c0 -73 -4 -91 -31 -145 -17 -34 -47 -75 -67 -92 -122 -102
-345 -138 -484 -78 -161 69 -184 277 -40 356 56 31 132 39 400 41 l222 1 0
-83z"/>
<path d="M5924 2435 c-154 -33 -286 -122 -360 -241 l-23 -39 -1 143 0 142
-165 0 -165 0 2 -757 3 -758 163 -3 162 -2 0 398 c0 241 4 422 11 458 14 78
68 189 116 238 91 94 188 130 328 124 195 -9 311 -113 335 -303 5 -38 10 -260
10 -493 l0 -422 163 2 162 3 0 525 c-1 464 -3 533 -18 594 -52 207 -186 345
-379 391 -78 18 -260 18 -344 0z"/>
<path d="M530 415 l0 -55 3585 0 3585 0 0 55 0 55 -3585 0 -3585 0 0 -55z"/>
</g>
</svg>