<?xml version="1.0" encoding="UTF-8" standalone="no"?>
<!-- Created with Inkscape (http://www.inkscape.org/) -->

<svg
   width="297mm"
   height="210mm"
   viewBox="0 0 297 210"
   version="1.1"
   id="svg1"
   xml:space="preserve"
   sodipodi:docname="servers.svg"
   inkscape:version="1.3 (0e150ed, 2023-07-21)"
   inkscape:export-filename="servers.svg"
   inkscape:export-xdpi="96"
   inkscape:export-ydpi="96"
   xmlns:inkscape="http://www.inkscape.org/namespaces/inkscape"
   xmlns:sodipodi="http://sodipodi.sourceforge.net/DTD/sodipodi-0.dtd"
   xmlns:xlink="http://www.w3.org/1999/xlink"
   xmlns="http://www.w3.org/2000/svg"
   xmlns:svg="http://www.w3.org/2000/svg"><sodipodi:namedview
     id="namedview1"
     pagecolor="#ffffff"
     bordercolor="#000000"
     borderopacity="0.25"
     inkscape:showpageshadow="false"
     inkscape:pageopacity="0.0"
     inkscape:pagecheckerboard="0"
     inkscape:deskcolor="#d1d1d1"
     inkscape:document-units="mm"
     inkscape:zoom="0.67853371"
     inkscape:cx="581.40074"
     inkscape:cy="375.07348"
     inkscape:window-width="1512"
     inkscape:window-height="846"
     inkscape:window-x="0"
     inkscape:window-y="38"
     inkscape:window-maximized="1"
     inkscape:current-layer="layer2"
     showguides="false"
     showgrid="true"
     showborder="false"
     borderlayer="false"><inkscape:grid
       id="grid53"
       units="mm"
       originx="0"
       originy="0"
       spacingx="1"
       spacingy="0.99999998"
       empcolor="#0099e5"
       empopacity="0.30196078"
       color="#0099e5"
       opacity="0.14901961"
       empspacing="5"
       dotted="false"
       gridanglex="30"
       gridanglez="30"
       visible="true" /></sodipodi:namedview><defs
     id="defs1"><inkscape:path-effect
       effect="fillet_chamfer"
       id="path-effect52"
       is_visible="true"
       lpeversion="1"
       nodesatellites_param="F,0,0,1,0,0,0,1 @ F,0,0,1,0,0,0,1 @ F,0,0,1,0,4.1745889,0,1 @ F,0,0,1,0,3.8560972,0,1"
       radius="0"
       unit="px"
       method="auto"
       mode="F"
       chamfer_steps="1"
       flexible="false"
       use_knot_distance="true"
       apply_no_radius="true"
       apply_with_radius="true"
       only_selected="false"
       hide_knots="false" /><inkscape:path-effect
       effect="fillet_chamfer"
       id="path-effect51"
       is_visible="true"
       lpeversion="1"
       nodesatellites_param="F,0,0,1,0,0,0,1 @ F,0,0,1,0,0,0,1 @ F,0,0,1,0,4.0892919,0,1 @ F,0,0,1,0,3.8560972,0,1"
       radius="0"
       unit="px"
       method="auto"
       mode="F"
       chamfer_steps="1"
       flexible="false"
       use_knot_distance="true"
       apply_no_radius="true"
       apply_with_radius="true"
       only_selected="false"
       hide_knots="false" /><inkscape:path-effect
       effect="fillet_chamfer"
       id="path-effect50"
       is_visible="true"
       lpeversion="1"
       nodesatellites_param="F,0,0,1,0,0,0,1 @ F,0,0,1,0,0,0,1 @ F,0,0,1,0,0,0,1 @ F,0,0,1,0,0,0,1 @ F,0,0,1,0,0,0,1 @ F,0,0,1,0,0,0,1"
       radius="0"
       unit="px"
       method="auto"
       mode="F"
       chamfer_steps="1"
       flexible="false"
       use_knot_distance="true"
       apply_no_radius="true"
       apply_with_radius="true"
       only_selected="false"
       hide_knots="false" /><inkscape:path-effect
       effect="fillet_chamfer"
       id="path-effect29"
       is_visible="true"
       lpeversion="1"
       nodesatellites_param="F,0,0,1,0,4.175284,0,1 @ F,0,0,1,0,4.175284,0,1 @ F,0,0,1,0,4.175284,0,1 @ F,0,0,1,0,6.4026393,0,1 @ F,0,0,1,0,6.4026393,0,1 @ F,0,0,1,0,10.190117,0,1 @ F,0,0,1,0,1.3729755,0,1 @ F,0,0,1,0,2.3676442,0,1 @ F,0,0,1,0,1.3952277,0,1 @ F,0,0,1,0,1.3952277,0,1 @ F,0,0,1,0,1.6859385,0,1 @ F,0,0,1,0,4.175284,0,1 @ F,0,0,1,0,4.175284,0,1 @ F,0,0,1,0,1.8295036,0,1 @ F,0,0,1,0,3.5442564,0,1 @ F,0,1,1,0,3.5442564,0,1"
       radius="0"
       unit="px"
       method="auto"
       mode="F"
       chamfer_steps="1"
       flexible="false"
       use_knot_distance="true"
       apply_no_radius="true"
       apply_with_radius="true"
       only_selected="false"
       hide_knots="false" /><marker
       style="overflow:visible"
       id="Triangle"
       refX="0"
       refY="0"
       orient="auto-start-reverse"
       inkscape:stockid="Triangle arrow"
       markerWidth="1"
       markerHeight="1"
       viewBox="0 0 1 1"
       inkscape:isstock="true"
       inkscape:collect="always"
       preserveAspectRatio="xMidYMid"><path
         transform="scale(0.5)"
         style="fill:context-stroke;fill-rule:evenodd;stroke:context-stroke;stroke-width:1pt"
         d="M 5.77,0 -2.88,5 V -5 Z"
         id="path135" /></marker><linearGradient
       id="swatch18"
       inkscape:swatch="solid"><stop
         style="stop-color:#ff0000;stop-opacity:1;"
         offset="0"
         id="stop18" /></linearGradient><filter
       inkscape:collect="always"
       style="color-interpolation-filters:sRGB"
       id="filter3"
       x="-0.0049379368"
       y="-0.0127849"
       width="1.0098759"
       height="1.0255698"><feGaussianBlur
         inkscape:collect="always"
         stdDeviation="0.19586709"
         id="feGaussianBlur3" /></filter><filter
       inkscape:collect="always"
       style="color-interpolation-filters:sRGB"
       id="filter7"
       x="-0.082239129"
       y="-8.0046004"
       width="1.1644783"
       height="17.009201"><feGaussianBlur
         inkscape:collect="always"
         stdDeviation="0.079110797"
         id="feGaussianBlur7" /></filter><filter
       inkscape:collect="always"
       style="color-interpolation-filters:sRGB"
       id="filter13"
       x="-0.057527042"
       y="-0.070515613"
       width="1.1150541"
       height="1.1410312"><feGaussianBlur
         inkscape:collect="always"
         stdDeviation="0.092912207"
         id="feGaussianBlur13" /></filter><filter
       inkscape:collect="always"
       style="color-interpolation-filters:sRGB"
       id="filter30"
       x="-0.0088165748"
       y="-0.0063856186"
       width="1.0147428"
       height="1.0131302"><feGaussianBlur
         inkscape:collect="always"
         stdDeviation="0.03749184"
         id="feGaussianBlur30" /></filter><filter
       inkscape:collect="always"
       style="color-interpolation-filters:sRGB"
       id="filter32"
       x="-0.0011264952"
       y="-0.0033972066"
       width="1.002247"
       height="1.006796"><feGaussianBlur
         inkscape:collect="always"
         stdDeviation="0.036819887"
         id="feGaussianBlur32" /></filter><filter
       inkscape:collect="always"
       style="color-interpolation-filters:sRGB"
       id="filter33"
       x="-0.005684601"
       y="-0.013472801"
       width="1.0084942"
       height="1.0286926"><feGaussianBlur
         inkscape:collect="always"
         stdDeviation="0.01516759"
         id="feGaussianBlur33" /></filter><filter
       inkscape:collect="always"
       style="color-interpolation-filters:sRGB"
       id="filter42"
       x="-0.0017232474"
       y="-0.022411342"
       width="1.0034465"
       height="1.0448227"><feGaussianBlur
         inkscape:collect="always"
         stdDeviation="0.08434191"
         id="feGaussianBlur42" /></filter><filter
       inkscape:collect="always"
       style="color-interpolation-filters:sRGB"
       id="filter43"
       x="-0.0018582373"
       y="-0.011397191"
       width="1.0037165"
       height="1.0227944"><feGaussianBlur
         inkscape:collect="always"
         stdDeviation="0.099291662"
         id="feGaussianBlur43" /></filter><filter
       inkscape:collect="always"
       style="color-interpolation-filters:sRGB"
       id="filter44"
       x="-0.0019640095"
       y="-0.062733423"
       width="1.003928"
       height="1.1254668"><feGaussianBlur
         inkscape:collect="always"
         stdDeviation="0.091111437"
         id="feGaussianBlur44" /></filter><filter
       inkscape:collect="always"
       style="color-interpolation-filters:sRGB"
       id="filter50"
       x="-0.00060968142"
       y="-0.00047758385"
       width="1.0012194"
       height="1.0009552"><feGaussianBlur
         inkscape:collect="always"
         stdDeviation="0.023429408"
         id="feGaussianBlur50" /></filter><marker
       style="overflow:visible"
       id="Triangle-3"
       refX="0"
       refY="0"
       orient="auto-start-reverse"
       inkscape:stockid="Triangle arrow"
       markerWidth="1"
       markerHeight="1"
       viewBox="0 0 1 1"
       inkscape:isstock="true"
       inkscape:collect="always"
       preserveAspectRatio="xMidYMid"><path
         transform="scale(0.5)"
         style="fill:context-stroke;fill-rule:evenodd;stroke:context-stroke;stroke-width:1pt"
         d="M 5.77,0 -2.88,5 V -5 Z"
         id="path135-9" /></marker><marker
       style="overflow:visible"
       id="Triangle-8"
       refX="0"
       refY="0"
       orient="auto-start-reverse"
       inkscape:stockid="Triangle arrow"
       markerWidth="1"
       markerHeight="1"
       viewBox="0 0 1 1"
       inkscape:isstock="true"
       inkscape:collect="always"
       preserveAspectRatio="xMidYMid"><path
         transform="scale(0.5)"
         style="fill:context-stroke;fill-rule:evenodd;stroke:context-stroke;stroke-width:1pt"
         d="M 5.77,0 -2.88,5 V -5 Z"
         id="path135-2" /></marker></defs><g
     inkscape:label="Layer 1"
     id="layer1"
     inkscape:groupmode="layer"><g
       id="g30"
       inkscape:label="arrow"><path
         style="fill:#ffffff;fill-opacity:1;stroke:#002b47;stroke-width:5;stroke-linecap:square;stroke-linejoin:round;stroke-dasharray:none;stroke-opacity:1;paint-order:fill markers stroke"
         d="m 85.428994,40.270423 h 12.393162 c 2.305944,0 5.387194,-1.424148 6.948744,-3.120711 3.42459,-3.720702 9.52552,-9.926665 15.45143,-13.844535 1.92203,-1.270737 5.29472,-2.912545 7.45594,-3.714122 4.48973,-1.665205 9.63744,-2.8491 14.59608,-3.437788 3.50969,-0.416669 9.26408,-0.417698 12.76454,0.06159 5.42945,0.743406 11.83632,2.259789 17.51811,3.966133 3.3862,1.016936 8.7876,2.95234 12.04901,4.317809 3.95077,1.654084 7.40582,3.367646 10.7074,5.268536 4.87547,2.807052 12.20796,8.283184 16.26586,12.176132 2.53505,2.431995 4.82488,4.787381 6.05332,6.069834 0.52436,0.547428 0.51541,1.434601 -0.0148,1.976641 L 205.531,62.345287 a 0.8118889,0.8118889 63.297743 0 0 0.6902,1.372174 l 36.63297,-5.001745 a 1.6384353,1.6384353 131.80867 0 0 1.4163,-1.583565 l 0.75819,-31.195902 a 0.55816042,0.55816042 23.196116 0 0 -0.95267,-0.408241 l -9.58332,9.583324 c -0.6584,0.6584 -1.75206,0.685911 -2.44781,0.06711 -2.4405,-2.170571 -7.99512,-7.032522 -12.67187,-10.552627 -1.84181,-1.3863 -4.9769,-3.42707 -6.94546,-4.627843 C 204.82548,15.36092 197.08391,11.499905 188.35497,7.9942416 186.21518,7.1348718 182.71757,5.8107739 180.52892,5.0852074 171.13746,1.9718178 161.7729,0.37672141 153.36449,0.11663831 152.35459,0.08540082 150.716,0.07308279 149.70614,0.1044322 c -8.14306,0.25278837 -21.74834,2.4191437 -30.45952,5.4376537 -1.84891,0.6406644 -4.74777,1.9411121 -6.50495,2.803423 -4.39795,2.1582441 -9.78169,5.1906791 -14.30237,9.0066511 -1.495257,1.262168 -3.733239,3.518908 -5.034209,4.981127 -4.646773,5.22272 -8.146045,10.748199 -10.168683,14.263655 -1.149736,1.998305 -0.11336,3.673481 2.192586,3.673481 z"
         id="path29"
         sodipodi:nodetypes="ccsssacccccassssc"
         inkscape:path-effect="#path-effect29"
         inkscape:original-d="m 81.25371,40.270423 h 20.74373 c 0,0 12.03293,-14.308961 21.83735,-19.05224 6.9992,-3.386143 16.7664,-5.415717 24.82512,-5.486786 7.7315,-0.06818 21.11691,3.243376 29.97851,6.449357 10.56149,3.82097 17.49447,7.636825 25.2369,13.105359 5.47569,3.867519 14.70254,13.722377 14.70254,13.722377 l -14.70254,15.02927 40.36125,-5.510793 0.82599,-33.985534 -11.76203,11.762038 c 0,0 -11.07913,-10.050484 -17.33645,-14.086289 C 206.10027,15.855287 196.22329,10.918509 184.4642,6.4795278 173.08671,2.1845956 161.55782,0.16072351 151.53538,0.0809252 142.7573,0.01103437 124.66912,2.9011193 115.94866,6.8369 110.45449,9.31657 101.82276,13.715257 95.830703,19.749681 86.759537,28.884986 81.25371,40.270423 81.25371,40.270423 Z"
         transform="translate(-10.371865,4.2333331)"
         inkscape:label="arrow" /><path
         style="mix-blend-mode:normal;fill:#bce9ff;fill-opacity:1;stroke:#bce9ff;stroke-width:0.1;stroke-linecap:square;stroke-linejoin:miter;stroke-dasharray:none;stroke-opacity:1;paint-order:fill markers stroke;filter:url(#filter32)"
         d="m 91.541677,31.119084 c 2.338014,-1.719155 2.390889,-1.717545 3.634701,-2.560016 3.287413,-2.226666 8.623062,-5.146281 12.204452,-6.978206 4.98227,-2.548492 9.04367,-4.43347 13.89056,-5.661166 3.93924,-0.997792 8.05843,-1.155069 12.11839,-1.328043 3.45631,-0.147256 6.93153,-0.07947 10.37534,0.249008 4.32874,0.412887 8.65998,1.052303 12.86542,2.15807 9.58584,2.520472 19.0794,5.723715 27.95218,10.141283 3.40297,1.694267 6.49047,3.974644 9.56502,6.210243 5.64763,4.106568 10.8662,8.773112 16.26853,13.197427 1.40102,1.147384 2.95685,2.038189 3.48598,3.778601 0.26151,0.860149 -0.37867,1.435769 -1.17287,2.258944 -1.14244,1.184112 -3.71788,3.441751 -2.95828,2.391221 0.4654,-0.64365 0.3934,-1.581721 0.27423,-2.367012 -0.0931,-0.61367 -0.40893,-1.186532 -0.7534,-1.702866 -0.45583,-0.683251 -1.11967,-1.202352 -1.69777,-1.785805 -2.57529,-2.599157 -5.07708,-5.290641 -7.88526,-7.636248 -3.42376,-2.85979 -7.16778,-5.318448 -10.87335,-7.80225 -1.95133,-1.307956 -3.89028,-2.654642 -5.97619,-3.73512 -3.80983,-1.973454 -7.8399,-3.506166 -11.86938,-4.980162 -5.11984,-1.872854 -10.29512,-3.659956 -15.60451,-4.897158 -5.45348,-1.270779 -11.00161,-2.48684 -16.60053,-2.573083 -4.96171,-0.07643 -9.94772,0.674175 -14.77448,1.826059 -4.29039,1.023882 -8.47092,2.579638 -12.4504,4.482145 -2.16188,1.033552 -4.21638,2.309215 -6.1422,3.73512 -2.20483,1.632493 -4.13097,3.612356 -6.142194,5.478177 -1.870442,1.735213 -3.648344,3.455176 -5.508261,5.314576 -0.246062,0.245993 -0.212155,0.0853 -2.158674,0.0807 -0.644259,-0.0015 -0.0086,-1.185804 -0.03782,-1.777825 -0.03178,-0.643476 -0.135344,-1.282887 -0.149495,-1.926992 -0.0263,-1.196938 -0.90107,-2.838672 0.120265,-3.589666 z"
         id="path31"
         sodipodi:nodetypes="sssaaaaaassssaaaaaaaaaaaaassaass" /><path
         style="fill:#bce9ff;fill-opacity:1;stroke:#bce9ff;stroke-width:0.1;stroke-linecap:square;stroke-linejoin:miter;stroke-dasharray:none;stroke-opacity:1;paint-order:fill markers stroke;filter:url(#filter33)"
         d="m 203.45045,61.754422 27.94258,-3.973862 0.0339,2.707933 -30.94832,4.262722 z"
         id="path32"
         sodipodi:nodetypes="ccccc" /><path
         style="fill:#bce9ff;fill-opacity:1;stroke:#bce9ff;stroke-width:0.1;stroke-linecap:square;stroke-linejoin:miter;stroke-dasharray:none;stroke-opacity:1;paint-order:fill markers stroke;filter:url(#filter30)"
         d="m 98.221908,17.658086 c 0,0 -4.261705,3.928825 -5.38293,6.512378 -1.390076,3.203047 -1.339025,10.389101 -1.339025,10.389101 l 0.298985,3.853984 -14.479167,-0.0018 2.957888,-4.362329 2.254859,-2.904522 1.50563,-1.838872 1.569097,-1.778735 1.200843,-1.253961 2.715689,-2.570974 2.589703,-2.047067 3.406882,-2.330896 z"
         id="path30"
         sodipodi:nodetypes="cacccccccccccc" /></g><g
       id="g24"
       inkscape:label="server"
       transform="translate(0,4.2333335)"><g
         id="g6"
         transform="translate(-23.696487)"><g
           id="rect1"
           inkscape:label="big box"><path
             style="color:#000000;display:inline;fill:#86abc7;stroke-linejoin:round;-inkscape-stroke:none"
             d="m 56.003687,36.730244 h 98.111223 a 13.871935,13.871935 45 0 1 13.87194,13.871935 V 167.07852 a 13.871935,13.871935 135 0 1 -13.87194,13.87194 H 56.003687 A 13.871935,13.871935 45 0 1 42.131752,167.07852 V 50.602179 A 13.871935,13.871935 135 0 1 56.003687,36.730244 Z"
             id="path44" /><path
             style="color:#000000;display:inline;fill:#002b47;stroke-linejoin:round;-inkscape-stroke:none"
             d="m 56.003906,34.230469 c -9.012349,0 -16.373047,7.358744 -16.373047,16.371093 V 167.07812 c 0,9.01235 7.360698,16.37305 16.373047,16.37305 h 98.111324 c 9.01235,0 16.3711,-7.3607 16.3711,-16.37305 V 50.601562 c 0,-9.012349 -7.35875,-16.371093 -16.3711,-16.371093 z m 0,5 h 98.111324 c 6.31016,0 11.3711,5.060942 11.3711,11.371093 V 167.07812 c 0,6.31016 -5.06094,11.37305 -11.3711,11.37305 H 56.003906 c -6.310151,0 -11.373047,-5.06289 -11.373047,-11.37305 V 50.601562 c 0,-6.310151 5.062896,-11.371093 11.373047,-11.371093 z"
             id="path45" /></g></g><g
         id="rect6"
         transform="matrix(1.0417248,0,0,1,-2.8675925,0)"
         style="stroke-width:0.979768"><path
           style="color:#000000;fill:#4d7faf;stroke-width:0.992698;stroke-linecap:round;stroke-linejoin:round;-inkscape-stroke:none;filter:url(#filter50)"
           d="M 35.663952,47.095886 H 127.8934 V 164.83559 H 38.239045 c 0,0 -1.056031,-0.53776 -1.522524,-0.89757 -0.391299,-0.30181 -1.052569,-1.04401 -1.052569,-1.04401 z"
           id="path47"
           inkscape:path-effect="#path-effect50"
           inkscape:original-d="M 35.663952,47.095886 H 127.8934 V 164.83559 H 38.239045 c 0,0 -1.056031,-0.53776 -1.522524,-0.89757 -0.391299,-0.30181 -1.052569,-1.04401 -1.052569,-1.04401 z"
           sodipodi:nodetypes="ccccacc"
           transform="matrix(1,0,0,0.9741185,0,1.2189121)" /><path
           style="color:#000000;fill:#ffffff;fill-opacity:0;stroke-width:0.979768;stroke-linecap:round;stroke-linejoin:round;-inkscape-stroke:none"
           d="m 35.664062,46.595703 a 0.50004949,0.48922955 0 0 0 -0.5,0.489181 V 162.27749 a 0.50004949,0.48922955 0 0 0 0.5,0.48918 h 92.228518 a 0.50004949,0.48922955 0 0 0 0.5,-0.48918 V 47.084884 a 0.50004949,0.48922955 0 0 0 -0.5,-0.489181 z m 0.5,0.978362 H 127.39258 V 161.78831 H 36.164062 Z"
           id="path48" /></g><g
         id="g5"
         transform="matrix(1.0000015,0,0,1.0000013,-23.696571,-4.415363)"
         style="stroke-width:1"><use
           x="0"
           y="0"
           xlink:href="#use4"
           id="use5"
           transform="translate(-9.2695164e-8,40.818225)"
           style="stroke-width:1" /><use
           x="0"
           y="0"
           xlink:href="#g2"
           id="use4"
           transform="translate(23.704442,44.697047)"
           inkscape:label="use4"
           style="stroke-width:1" /></g><g
         id="g2"
         style="stroke:#002b47;stroke-opacity:1"
         transform="translate(-22.747313,1.8481169)"><path
           d="m 61.480937,44.56352 a 4.3196972,4.2164486 0 0 0 -1.653129,0.320911 4.3196972,4.2164486 0 0 0 -1.401465,0.914156 4.3196972,4.2164486 0 0 0 -0.936376,1.367875 4.3196972,4.2164486 0 0 0 -0.328663,1.613339 v 28.722277 a 4.3196972,4.2164486 0 0 0 0.328663,1.613339 4.3196972,4.2164486 0 0 0 0.936376,1.367875 4.3196972,4.2164486 0 0 0 1.401465,0.914156 4.3196972,4.2164486 0 0 0 1.653129,0.320911 h 87.558993 a 4.3196972,4.2164486 0 0 0 1.65313,-0.320911 4.3196972,4.2164486 0 0 0 1.40146,-0.914156 4.3196972,4.2164486 0 0 0 0.93638,-1.367875 4.3196972,4.2164486 0 0 0 0.32866,-1.613339 V 48.779801 a 4.3196972,4.2164486 0 0 0 -0.0439,-0.599964 4.3196972,4.2164486 0 0 0 -0.13074,-0.588078 4.3196972,4.2164486 0 0 0 -0.21549,-0.563273 4.3196972,4.2164486 0 0 0 -0.29559,-0.528133 4.3196972,4.2164486 0 0 0 -0.36897,-0.481624 4.3196972,4.2164486 0 0 0 -0.43615,-0.425297 4.3196972,4.2164486 0 0 0 -0.49351,-0.360702 4.3196972,4.2164486 0 0 0 -0.54054,-0.288354 4.3196972,4.2164486 0 0 0 -0.57774,-0.210323 4.3196972,4.2164486 0 0 0 -0.60203,-0.127641 4.3196972,4.2164486 0 0 0 -0.61495,-0.04289 z m -2.326473,2.128553 H 150.98038 V 76.940872 H 59.154464 Z"
           style="display:inline;fill:#3b6180;stroke:#3b6180;stroke-width:0.00987977;stroke-linecap:round;stroke-linejoin:round;filter:url(#filter3)"
           id="path8" /><path
           d="M 59.170371,46.692073 V 76.940872 H 150.99629 V 46.692073 Z"
           style="display:inline;fill:#86abc7;stroke-width:4.99999;stroke-linejoin:round"
           id="path7"
           sodipodi:nodetypes="ccccc" /><g
           id="rect7"
           transform="translate(0.51917105,-1.8481169)"><path
             style="color:#000000;fill:#000000;fill-opacity:0;stroke:none;stroke-linecap:round;stroke-linejoin:round;-inkscape-stroke:none"
             d="M 61.373814,51.210838 H 147.81362 V 75.707609 H 61.373814 Z"
             id="path12" /><path
             style="color:#000000;fill:#ffffff;stroke:none;stroke-linecap:round;stroke-linejoin:round;-inkscape-stroke:none"
             d="m 61.373047,50.710937 c -0.276131,2.8e-5 -0.499972,0.223869 -0.5,0.5 v 24.566414 c 2.8e-5,0.276131 0.247309,0.523413 0.52344,0.523441 l 86.406243,-0.01172 c 0.27613,-2.8e-5 0.19335,-0.134716 0.19338,-0.410847 l -0.0163,-24.641545 c -3e-5,-0.276131 0.1108,-0.525716 -0.16533,-0.525744 z m 0.48828,2.078247 86.110743,-0.05149 -0.0281,23.531429 -86.082693,0.01615 z"
             id="path11"
             sodipodi:nodetypes="cccccccccccccc" /></g></g><g
         inkscape:groupmode="layer"
         id="layer2"
         inkscape:label="text"><path
           style="font-weight:bold;line-height:2.2;font-family:Arial;-inkscape-font-specification:'Arial Bold';text-align:center;letter-spacing:0.06px;text-anchor:middle;white-space:pre;fill:#002b47;stroke:#ffffff;stroke-width:0.0769569;stroke-linecap:round;stroke-linejoin:round;paint-order:fill markers stroke"
           d="m 302.43371,537.03078 -5.88867,-2.56055 v -1.41797 l 5.88867,-2.54883 v 1.66992 l -4.10742,1.57032 4.10742,1.6289 z m 4.59516,-7.61133 h 1.72851 v 5.4375 q 0,1.0664 -0.1875,1.64062 -0.25195,0.75 -0.91406,1.20703 -0.66211,0.45118 -1.74609,0.45118 -1.27149,0 -1.95703,-0.70899 -0.68555,-0.71484 -0.69141,-2.09179 l 1.63476,-0.1875 q 0.0293,0.73828 0.2168,1.04296 0.28125,0.46289 0.85547,0.46289 0.58008,0 0.82031,-0.32812 0.24024,-0.33398 0.24024,-1.37695 z m 3.19476,5.79492 1.6875,-0.16406 q 0.15235,0.84961 0.61524,1.24804 0.46875,0.39844 1.25976,0.39844 0.83789,0 1.25977,-0.35156 0.42773,-0.35742 0.42773,-0.83203 0,-0.30469 -0.18164,-0.51563 -0.17578,-0.21679 -0.62109,-0.375 -0.30469,-0.10547 -1.38867,-0.375 -1.39453,-0.3457 -1.95703,-0.84961 -0.79102,-0.70898 -0.79102,-1.72851 0,-0.65625 0.36914,-1.22461 0.375,-0.57422 1.07227,-0.87305 0.70312,-0.29883 1.69336,-0.29883 1.61718,0 2.43164,0.70899 0.82031,0.70898 0.86132,1.89258 l -1.73437,0.0762 q -0.11133,-0.66211 -0.48047,-0.94922 -0.36328,-0.29297 -1.0957,-0.29297 -0.75586,0 -1.1836,0.31055 -0.27539,0.19922 -0.27539,0.5332 0,0.30469 0.25782,0.52149 0.32812,0.27539 1.59375,0.57421 1.26562,0.29883 1.86914,0.6211 0.60937,0.3164 0.94921,0.87304 0.34571,0.55079 0.34571,1.36524 0,0.73828 -0.41016,1.38281 -0.41015,0.64453 -1.16015,0.96094 -0.75,0.31055 -1.86915,0.31055 -1.6289,0 -2.50195,-0.75 -0.87305,-0.75586 -1.04297,-2.19727 z m 7.63032,2.79492 2.93554,-4.48242 -2.66015,-4.10742 h 2.02734 l 1.72266,2.75976 1.6875,-2.75976 h 2.00976 l -2.67187,4.17187 2.93554,4.41797 h -2.09179 l -1.9043,-2.9707 -1.91016,2.9707 z m 8.62054,-0.97265 v -1.65821 l 4.11328,-1.61718 -4.11328,-1.59961 v -1.64649 l 5.89453,2.54883 v 1.40625 z"
           id="text24"
           transform="matrix(1.3623808,0,0,1.2393865,-345.65304,-517.45451)"
           aria-label="&lt;JSX&gt;" /><path
           style="font-weight:bold;line-height:2.2;font-family:Arial;-inkscape-font-specification:'Arial Bold';text-align:center;letter-spacing:0.06px;text-anchor:middle;white-space:pre;fill:#002b47;stroke:#ffffff;stroke-width:0.0769569;stroke-linecap:round;stroke-linejoin:round;paint-order:fill markers stroke"
           d="m 297.0834,537.03078 -5.88867,-2.56055 v -1.41797 l 5.88867,-2.54883 v 1.66992 l -4.10742,1.57032 4.10742,1.6289 z m 1.5014,0.97851 v -8.58984 h 1.73438 v 3.38086 h 3.39844 v -3.38086 h 1.73437 v 8.58984 h -1.73437 v -3.75586 h -3.39844 v 3.75586 z m 10.65375,0 v -7.13672 h -2.54882 v -1.45312 h 6.82617 v 1.45312 h -2.54297 v 7.13672 z m 5.43305,0 v -8.58984 h 2.5957 l 1.5586,5.85937 1.54101,-5.85937 h 2.60157 v 8.58984 h -1.61133 v -6.76172 l -1.70508,6.76172 h -1.66992 l -1.69922,-6.76172 v 6.76172 z m 10.12641,0 v -8.51953 h 1.73437 v 7.07227 h 4.3125 v 1.44726 z m 7.02679,-0.97265 v -1.65821 l 4.11329,-1.61718 -4.11329,-1.59961 v -1.64649 l 5.89454,2.54883 v 1.40625 z"
           id="text24-6"
           inkscape:transform-center-x="-1.8678796"
           inkscape:transform-center-y="70.771882"
           transform="matrix(1.3623808,0,0,1.2393865,-345.62436,-598.47503)"
           aria-label="&lt;HTML&gt;" /><path
           style="fill:#002b47;fill-opacity:1;stroke:#002b47;stroke-width:1.97294;stroke-linecap:round;stroke-linejoin:round;stroke-dasharray:none;stroke-opacity:1;marker-end:url(#Triangle);paint-order:fill markers stroke"
           d="m 83.922197,113.28841 0.04823,-11.52174"
           id="path24"
           inkscape:label="middle-arrow-black" /><path
           style="fill:#002b47;fill-opacity:1;stroke:#002b47;stroke-width:1.97294;stroke-linecap:round;stroke-linejoin:round;stroke-dasharray:none;stroke-opacity:1;marker-end:url(#Triangle-8);paint-order:fill markers stroke"
           d="m 62.892628,113.28841 0.04823,-11.52174"
           id="path24-60"
           inkscape:label="middle-arrow-black" /><path
           style="fill:#002b47;fill-opacity:1;stroke:#002b47;stroke-width:1.97294;stroke-linecap:round;stroke-linejoin:round;stroke-dasharray:none;stroke-opacity:1;marker-end:url(#Triangle-3);paint-order:fill markers stroke"
           d="M 104.95177,113.28841 105,101.76667"
           id="path24-6"
           inkscape:label="middle-arrow-black" /></g><path
         style="fill:#dfe8f0;fill-opacity:1;stroke:#86a9c4;stroke-width:0;stroke-linecap:square;stroke-linejoin:miter;stroke-dasharray:none;stroke-opacity:1;paint-order:fill markers stroke"
         d="m 141.33901,47.402127 c 0,0 -1.0741,-3.880962 -4.52369,-6.220235 -0.96762,-0.656168 -2.0744,-1.161925 -3.04068,-1.454048 -1.34965,-0.408023 -2.96532,-0.490891 -2.96532,-0.490891 L 31.291969,38.252089 c 0,0 -4.243086,0.314799 -6.77972,3.025574 -3.647442,3.897842 -3.460171,6.400289 -3.488667,6.860558 -0.08921,1.440889 -0.08921,117.917439 -0.08921,117.917439 l 1.222883,6.18148 c 0,0 0.140559,-123.547106 0.151301,-123.985755 0.0095,-0.388192 1.670433,-3.904384 3.336411,-5.441098 2.6918,-2.482942 5.243819,-2.425321 5.243819,-2.425321 0,0 98.499344,-0.239036 100.418574,0.09049 1.64218,0.281958 3.49304,0.804059 4.9481,1.781792 1.83132,1.230564 3.11259,3.148273 4.42948,4.918536 0.36666,0.492888 0.95704,1.574947 0.95704,1.574947"
         id="path46"
         sodipodi:nodetypes="cssccssccsscsaac" /><path
         style="fill:#497b9a;fill-opacity:1;stroke:#002b47;stroke-width:4;stroke-linecap:round;stroke-linejoin:round;stroke-dasharray:none;stroke-opacity:1;paint-order:fill markers stroke"
         id="rect50"
         width="36.628071"
         height="5.1568003"
         x="37.509457"
         y="182.15047"
         inkscape:path-effect="#path-effect51"
         sodipodi:type="rect"
         d="m 37.509457,182.15047 h 36.62807 v 1.06751 a 4.0892919,4.0892919 135 0 1 -4.089291,4.08929 H 41.365554 a 3.8560972,3.8560972 45 0 1 -3.856097,-3.8561 z" /><path
         style="fill:#497b9a;fill-opacity:1;stroke:#002b47;stroke-width:4;stroke-linecap:square;stroke-linejoin:round;stroke-dasharray:none;stroke-opacity:1;paint-order:fill markers stroke"
         id="rect50-5"
         width="36.628071"
         height="5.1568003"
         x="93.154251"
         y="182.15047"
         inkscape:path-effect="#path-effect52"
         sodipodi:type="rect"
         d="m 93.154251,182.15047 h 36.628069 v 0.98221 a 4.1745889,4.1745889 135 0 1 -4.17459,4.17459 H 97.010348 a 3.8560972,3.8560972 45 0 1 -3.856097,-3.8561 z" /></g><g
       id="g17"
       inkscape:label="laptop"
       transform="translate(0,4.2333335)"><rect
         style="fill:#86a9c4;fill-opacity:1;stroke:#002b47;stroke-width:5;stroke-linecap:round;stroke-linejoin:round;stroke-dasharray:none;stroke-opacity:1"
         id="rect12"
         width="115.94526"
         height="67.368355"
         x="162.58334"
         y="94.37458" /><path
         style="fill:#002b47;fill-opacity:1;stroke:#4d7faf;stroke-width:2.40312;stroke-linecap:square;stroke-linejoin:round;stroke-dasharray:none;stroke-opacity:1;paint-order:fill markers stroke"
         d="m 166.31329,101.98712 108.48603,-0.0736"
         id="path25"
         sodipodi:nodetypes="cc" /><path
         style="fill:#002b47;fill-opacity:1;stroke:#4d7faf;stroke-width:2.40312;stroke-linecap:square;stroke-linejoin:round;stroke-dasharray:none;stroke-opacity:1;paint-order:fill markers stroke"
         d="m 166.22032,157.77551 108.48603,-0.0736"
         id="path25-0"
         sodipodi:nodetypes="cc" /><g
         id="g25"
         inkscape:label="screen"><rect
           style="fill:#ffffff;fill-opacity:1;stroke:#002b47;stroke-width:4;stroke-linecap:round;stroke-linejoin:round;stroke-dasharray:none;stroke-opacity:1"
           id="rect17"
           width="77.622826"
           height="41.519192"
           x="183.226"
           y="108.31093" /><path
           style="fill:#ff0000;fill-opacity:1;stroke:#9fdffa;stroke-width:5;stroke-linecap:round;stroke-linejoin:round;stroke-dasharray:none;stroke-opacity:1;paint-order:fill markers stroke;filter:url(#filter7)"
           d="m 191.09457,118.73402 32.70786,-0.33604"
           id="path6" /><use
           x="0"
           y="0"
           xlink:href="#path6"
           id="use6"
           transform="translate(0,9.3969285)" /><use
           x="0"
           y="0"
           xlink:href="#use6"
           id="use7"
           transform="translate(0,8.9648858)" /><g
           id="g13"
           inkscape:label="sqare"
           style="filter:url(#filter13)"><rect
             style="fill:#ffffff;fill-opacity:1;stroke:#59c8f6;stroke-width:2.17424;stroke-linecap:round;stroke-linejoin:round;stroke-dasharray:none;stroke-opacity:1;paint-order:fill markers stroke"
             id="rect8"
             width="22.7738"
             height="18.578997"
             x="230.06104"
             y="118.52863" /><path
             style="fill:#ffffff;fill-opacity:1;stroke:#59c8f6;stroke-width:2;stroke-linecap:round;stroke-linejoin:round;stroke-dasharray:none;stroke-opacity:1;paint-order:fill markers stroke"
             d="m 230.809,119.3586 20.78201,16.82791"
             id="path9" /><path
             style="fill:#ffffff;fill-opacity:1;stroke:#59c8f6;stroke-width:1.94392;stroke-linecap:round;stroke-linejoin:round;stroke-dasharray:none;stroke-opacity:1;paint-order:fill markers stroke"
             d="m 242.66129,119.60702 -11.98516,8.54997"
             id="path10" /><path
             style="fill:#ffffff;fill-opacity:1;stroke:#59c8f6;stroke-width:1.99999;stroke-linecap:round;stroke-linejoin:round;stroke-dasharray:none;stroke-opacity:1;paint-order:fill markers stroke"
             d="M 251.64079,120.05557 231.11825,134.9489"
             id="path13" /></g></g><g
         id="rect13"
         transform="matrix(0.96004425,0,0,0.75157106,8.8276213,43.326883)"><path
           style="color:#000000;fill:#ffffff;stroke-linecap:round;stroke-linejoin:round;-inkscape-stroke:none;filter:url(#filter43)"
           d="m 156.81499,156.11804 h 128.2398 v 9.22503 c 0,6.45269 -5.23094,11.68363 -11.68363,11.68363 H 168.49862 c -6.45269,0 -11.68363,-5.23094 -11.68363,-11.68363 z"
           id="path33"
           sodipodi:nodetypes="ccssssc" /><path
           style="color:#000000;fill:#002b47;stroke-linecap:round;stroke-linejoin:round;-inkscape-stroke:none"
           d="m 156.81445,153.17578 a 2.9434193,2.9434193 0 0 0 -2.94336,2.94141 v 9.22656 c 0,8.04326 6.58369,14.62695 14.62696,14.62695 h 104.87304 c 8.04327,0 14.62696,-6.58369 14.62696,-14.62695 v -9.22656 a 2.9434193,2.9434193 0 0 0 -2.94336,-2.94141 z m 2.94336,5.88477 h 122.35352 v 6.2832 c 0,4.8621 -3.87813,8.74023 -8.74024,8.74023 H 168.49805 c -4.86211,0 -8.74024,-3.87813 -8.74024,-8.74023 z"
           id="path34" /></g><g
         id="rect13-1"
         transform="matrix(0.32869807,0,0,0.28461966,149.89654,116.44515)"><path
           style="color:#000000;fill:#86a9c4;stroke-linecap:round;stroke-linejoin:round;-inkscape-stroke:none"
           d="m 156.81499,156.11804 h 128.2398 v 9.22503 A 11.683628,11.683628 135 0 1 273.37116,177.0267 H 168.49862 a 11.683628,11.683628 45 0 1 -11.68363,-11.68363 z"
           id="path35" /><path
           style="color:#000000;fill:#002b47;stroke-linecap:round;stroke-linejoin:round;-inkscape-stroke:none"
           d="m 156.81445,149.58008 a 6.5394536,6.5394536 0 0 0 -6.53906,6.53711 v 9.22656 c 0,9.98651 8.23615,18.22266 18.22266,18.22266 h 104.87304 c 9.98651,0 18.22266,-8.23615 18.22266,-18.22266 v -9.22656 a 6.5394536,6.5394536 0 0 0 -6.53906,-6.53711 z m 6.53907,13.07617 h 115.1621 v 2.6875 c 0,2.91886 -2.22567,5.14453 -5.14453,5.14453 H 168.49805 c -2.91886,0 -5.14453,-2.22567 -5.14453,-5.14453 z"
           id="path37" /></g><g
         id="rect14"
         transform="matrix(1.0873178,0,0,1.0304069,-19.291551,10.785666)"><path
           style="color:#000000;fill:#ffffff;stroke-linecap:round;stroke-linejoin:round;-inkscape-stroke:none"
           d="m 174.5451,68.301636 h 92.01325 a 7.5542077,7.5542077 45 0 1 7.55421,7.554208 v 9.126317 H 166.99089 v -9.126317 a 7.5542077,7.5542077 135 0 1 7.55421,-7.554208 z"
           id="path38" /><path
           style="color:#000000;fill:#002b47;stroke-linecap:round;stroke-linejoin:round;-inkscape-stroke:none"
           d="m 174.54492,65.939453 c -5.44852,0 -9.59525,4.498265 -9.59525,9.946787 v 9.126953 c 4.3e-4,1.303943 0.73662,2.330119 2.04056,2.330557 h 107.12305 c 1.30395,-4.33e-4 2.08674,-1.089526 2.08718,-2.393472 l -0.0305,-9.384105 c -0.0174,-5.377597 -4.16287,-9.62672 -9.6114,-9.62672 z m 0,4.724609 h 92.01367 c 2.89562,0 5.19141,2.295789 5.19141,5.191407 v 6.765625 H 169.35352 v -6.765625 c 0,-2.895618 2.29578,-5.191407 5.1914,-5.191407 z"
           id="path41"
           sodipodi:nodetypes="ssccccssssssccss" /></g><g
         id="g18"
         inkscape:label="buttons left"
         transform="translate(0.7521469)"><circle
           style="opacity:1;fill:#bf4040;fill-opacity:1;stroke:#002b47;stroke-width:1;stroke-linecap:butt;stroke-linejoin:bevel;stroke-dasharray:none;stroke-opacity:1;paint-order:fill markers stroke"
           id="path17"
           inkscape:label="path17"
           cy="89.37458"
           cx="171.55348"
           r="2" /><circle
           style="fill:#ffffff;fill-opacity:1;stroke:#002b47;stroke-width:4;stroke-linecap:round;stroke-linejoin:round;stroke-dasharray:none;stroke-opacity:1"
           id="path17-9"
           cx="178.56393"
           cy="89.37458"
           r="0.5" /><circle
           style="fill:#ffffff;fill-opacity:1;stroke:#002b47;stroke-width:4;stroke-linecap:round;stroke-linejoin:round;stroke-dasharray:none;stroke-opacity:1"
           id="path17-9-5"
           cx="185.57439"
           cy="89.37458"
           r="0.5" /></g><g
         id="g19"
         inkscape:label="buttons right"><circle
           style="fill:#002b47;fill-opacity:1;stroke:#002b47;stroke-width:0;stroke-linecap:round;stroke-linejoin:round;stroke-dasharray:none;stroke-opacity:1"
           id="path17-9-8-7"
           cx="254.38301"
           cy="89.359489"
           r="2.5546477" /><circle
           style="fill:#002b47;fill-opacity:1;stroke:#002b47;stroke-width:0;stroke-linecap:round;stroke-linejoin:round;stroke-dasharray:none;stroke-opacity:1"
           id="path17-9-8-7-6"
           cx="261.71176"
           cy="89.337982"
           r="2.5546477" /><circle
           style="fill:#002b47;fill-opacity:1;stroke:#002b47;stroke-width:0;stroke-linecap:round;stroke-linejoin:round;stroke-dasharray:none;stroke-opacity:1"
           id="path17-9-8-7-69"
           cx="268.77039"
           cy="89.511559"
           r="2.5546477" /></g></g><path
       style="fill:#b3e3fe;fill-opacity:1;stroke:#86a9c4;stroke-width:0;stroke-linecap:square;stroke-linejoin:miter;stroke-dasharray:none;stroke-opacity:1;paint-order:fill markers stroke;filter:url(#filter42)"
       d="m 162.20219,169.46666 v 2.36113 c 0,0 -0.0254,1.62982 0.68771,2.62877 0.23347,0.32704 0.78305,1.09441 1.09061,1.43693 0.63186,0.7037 1.02834,0.96532 1.70176,1.27693 1.0012,0.46329 0.63437,0.32313 1.84577,0.78171 0.17428,0.066 1.38301,0.50489 1.82805,0.51319 2.73741,0.0512 9.49827,0.006 9.49827,0.006 l 92.91412,-0.0853 c 0,0 1.61496,-0.0452 2.93984,-0.55298 0.83332,-0.31941 1.87715,-0.80231 2.3767,-1.24573 0.94291,-0.83697 2.58196,-2.267 2.58196,-4.75952 v -2.36113 l -2.82833,-0.009 c 0,0 0.31572,0.95513 0.0734,2.14318 -0.10518,0.51557 -0.50666,1.39957 -0.80415,1.74857 -0.62637,0.73481 -1.88559,1.44421 -2.72367,1.65889 -1.10042,0.28188 -104.49393,0.60121 -105.63537,0.31095 -1.1035,-0.28062 -2.35436,-1.06613 -2.843,-1.73246 -0.48864,-0.66633 -0.48864,-4.05882 -0.48864,-4.05882 l -2.21499,-0.0613"
       id="path42"
       sodipodi:nodetypes="ccsssssccsssccssssscc" /><path
       style="mix-blend-mode:normal;fill:#b3e3fe;fill-opacity:1;stroke:#86a9c4;stroke-width:0;stroke-linecap:square;stroke-linejoin:miter;stroke-dasharray:none;stroke-opacity:1;paint-order:fill markers stroke;filter:url(#filter44)"
       d="M 164.84954,100.15234 H 276.18706 V 96.666671 H 164.84954 v 3.485669"
       id="path43"
       transform="matrix(1,0,0,0.73476213,3.7937164e-7,26.500411)" /></g></svg>
